<svg width="109" height="106" viewBox="0 0 109 106" fill="none" xmlns="http://www.w3.org/2000/svg">
<path d="M37.2859 82.7083C36.5279 82.7505 35.914 82.7554 35.1186 82.6534C34.3233 82.5514 33.7093 82.5563 33.0582 82.4171C31.6116 82.1758 30.272 81.7531 28.8951 81.1863C26.1786 80.1967 23.7455 78.5188 21.6331 76.2965C19.558 74.2184 17.9477 71.5587 17.0955 68.8569C16.5786 67.4526 16.3874 66.1178 16.1589 64.639C16.1167 63.8809 16.1118 63.267 16.0697 62.5089C16.0275 61.7508 16.1668 61.0996 16.1246 60.3416L16.7905 62.3226C16.9768 63.0434 17.27 63.5828 17.6005 64.2663C18.0801 65.5265 18.7038 66.7494 19.2903 67.8282C20.5004 70.1299 21.9617 72.2129 23.8181 74.0399C25.6745 75.867 27.6379 77.5126 29.9965 78.9022C31.085 79.5436 32.3178 80.1477 33.5505 80.7518C34.0948 81.0725 34.7832 81.356 35.4717 81.6394L37.2859 82.7083ZM38.195 88.01C37.8371 88.4101 37.2977 88.7033 36.7583 88.9966C36.2189 89.2898 35.8237 89.5458 35.247 89.6948C34.2752 90.0998 33.1591 90.5421 31.9686 90.6961C29.7689 91.1109 27.3132 91.1305 25.1783 90.6058C22.8991 90.1184 20.7592 88.9798 19.1215 87.4038C18.3213 86.6879 17.4837 85.8279 16.7904 84.9305C16.5344 84.5353 16.2412 83.9959 15.948 83.4565C15.8362 83.024 15.5802 82.6288 15.4312 82.0522C15.9754 82.3729 16.3756 82.7308 16.7384 82.9446C17.2827 83.2653 17.6828 83.6233 18.0457 83.837C18.9528 84.3715 19.7158 84.9433 20.5857 85.3336C22.3627 86.2584 24.1024 87.039 26.056 87.4568C27.8654 87.9119 29.9258 88.1482 31.8048 88.2777C32.7443 88.3424 33.7907 88.2257 34.8744 88.2532C35.3441 88.2856 35.9208 88.1365 36.3905 88.1689C37.1486 88.1267 37.5811 88.0149 38.195 88.01ZM52.6645 9.52506C53.4226 9.4829 54.0738 9.62216 54.8691 9.72415C55.6645 9.82615 56.3157 9.96541 56.9668 10.1047C58.4506 10.4901 59.7903 10.9128 61.1671 11.4796C63.9209 12.6133 66.3913 14.4355 68.3595 16.695C70.3278 18.9545 71.7939 21.6514 72.502 24.3905C72.8746 25.8321 73.0659 27.1669 73.1502 28.683C73.1923 29.4411 73.1972 30.055 73.0953 30.8504C72.9933 31.6457 72.9982 32.2596 72.8589 32.9108L72.193 30.9298C72.0067 30.209 71.8576 29.6323 71.5271 28.9488L70.0885 25.1682C69.0225 22.8292 67.524 20.6021 65.7744 18.5936C64.0249 16.5851 62.0615 14.9395 59.8471 13.5126C58.7213 12.7271 57.4886 12.1229 56.3627 11.3374C55.8184 11.0167 55.13 10.7333 54.4416 10.4499L52.6645 9.52506ZM65.0576 5.70629C65.6715 5.70139 66.1413 5.73376 66.6483 5.91029C67.118 5.94265 67.7692 6.08191 68.2762 6.25844C69.2903 6.61149 70.3043 6.96455 71.3556 7.46177C73.3141 8.49346 75.0587 9.88802 76.3012 11.72C77.6879 13.5146 78.5352 15.6025 78.8059 17.8395C78.9226 18.8859 78.8951 19.9696 78.8677 21.0532C78.8353 21.523 78.696 22.1742 78.6637 22.6439C78.4871 23.1509 78.4548 23.6207 78.1341 24.165L77.7614 22.7234L77.3888 21.2817C77.1279 20.2726 76.7602 19.4449 76.5366 18.5799C75.7638 16.7803 75.0283 15.1249 73.8975 13.7255C72.7295 12.1819 71.4919 10.9638 70.0728 9.6389C69.3099 9.06715 68.5096 8.35124 67.7466 7.77949C67.3465 7.42154 66.9837 7.20775 66.4394 6.88706C65.9647 6.24078 65.4204 5.92009 65.0576 5.70629Z" fill="#42ADE2"/>
<path d="M17.1261 41.0121C14.5782 43.0548 14.4635 46.7756 16.5062 49.3235L44.4716 82.5426L53.3332 75.1767L25.3306 41.8133C23.2878 39.2655 19.6367 38.8251 17.1261 41.0121ZM72.6323 58.807L81.996 51.0037L50.0569 13.1213C47.87 10.6107 44.0747 10.2076 41.42 12.4318C38.9094 14.6187 38.5063 18.414 40.7305 21.0688L72.6323 58.807Z" fill="#FFDD67"/>
<path d="M41.5269 12.2504C41.2758 12.469 41.0247 12.6877 40.8109 13.0506C43.3637 11.6217 46.5823 12.1739 48.5506 14.4334L80.4897 52.3158L82.1402 50.9664L50.2011 13.084C47.9769 10.4292 44.1816 10.0261 41.5269 12.2504Z" fill="#EBA352"/>
<path d="M53.2958 75.0325L63.0175 66.8291L30.4223 28.1935C28.1981 25.5387 24.0772 25.066 21.4225 27.2902C18.7677 29.5144 18.4392 33.598 20.6634 36.2528L53.2958 75.0325Z" fill="#FFDD67"/>
<path d="M21.4598 27.4344C21.2087 27.6531 20.9577 27.8718 20.7439 28.2346C23.2966 26.8058 26.8036 27.2834 28.8091 29.6871L49.0456 53.8309L52.7017 54.8851L30.4596 28.3376C28.1981 25.5387 24.2587 25.1729 21.4598 27.4344Z" fill="#EBA352"/>
<path d="M60.3932 63.8163L70.1149 55.6129L37.5197 16.9773C35.2955 14.3226 31.1746 13.8498 28.5571 16.2182C25.9024 18.4424 25.5738 22.526 27.798 25.1808L60.3932 63.8163Z" fill="#FFDD67"/>
<path d="M28.5199 16.074C28.2688 16.2927 28.055 16.6556 27.804 16.8743C30.3567 15.4454 33.8637 15.923 35.8692 18.3267L58.7673 45.6274L62.4233 46.6817L37.5197 16.9773C35.2583 14.1784 31.1746 13.8498 28.5199 16.074ZM17.1261 41.0121C16.875 41.2308 16.624 41.4495 16.4102 41.8123C18.8188 40.4207 21.8932 41.0101 23.7173 43.3069L40.3802 63.1455L44.0362 64.1997L25.3678 41.9575C23.2878 39.2655 19.6367 38.8251 17.1261 41.0121Z" fill="#EBA352"/>
<path d="M89.2425 17.7562C84.5675 15.7349 79.0815 20.6904 78.5931 31.8899C78.2939 39.657 78.5646 41.894 74.5104 45.2489L70.5366 40.5857C70.5366 40.5857 34.7 70.9194 37.1056 73.681C37.1056 73.681 45.9573 87.6952 56.1447 92.5977C71.3003 100.061 97.3329 81.1817 91.5126 53.3113C88.097 37.1229 94.2803 19.9912 89.2425 17.7562Z" fill="#FFDD67"/>
<path d="M89.2424 17.7562C88.3725 17.3659 87.433 17.3011 86.5308 17.3806C86.7122 17.4875 87.0005 17.4129 87.182 17.5198C92.364 19.7176 89.87 28.5134 89.208 36.0667C88.6058 42.0666 88.3293 48.1361 90.0337 53.5398C97.3731 77.1726 76.242 94.7848 60.7078 94.1865C76.3636 96.4451 99.6944 78.4181 92.0941 53.7761C90.3897 48.3725 90.5966 42.6286 91.2684 36.3031C91.7863 28.787 94.2802 19.9912 89.2424 17.7562Z" fill="#EBA352"/>
<path d="M75.6587 44.3368C66.9815 47.6565 57.1794 63.8781 70.0206 75.4768C59.5929 63.1004 68.2339 50.7162 74.4407 45.5745C75.0125 44.8115 75.6587 44.3368 75.6587 44.3368Z" fill="#EBA352"/>
</svg>
