<svg width="218" height="238" viewBox="0 0 218 238" fill="none" xmlns="http://www.w3.org/2000/svg">
<path d="M25.8357 118.398L19.0393 118.538L15.5893 118.6C14.4341 118.6 13.2737 118.6 12.1185 118.626H11.8906V118.398L11.8595 112.602V112.338H12.1185L18.9771 112.369C21.2668 112.369 23.5512 112.426 25.8357 112.452H25.9807V112.591C25.9807 113.57 25.9341 114.55 25.9134 115.518L25.8357 118.398ZM25.8357 118.398L25.7632 115.466C25.7632 114.503 25.7062 113.55 25.6958 112.602L25.8357 112.742C23.5512 112.768 21.2668 112.825 18.9771 112.825L12.1185 112.861L12.3775 112.602V118.398L12.1444 118.165C13.2737 118.165 14.403 118.165 15.5375 118.165L18.946 118.227L25.8357 118.398Z" fill="#EBEBEB"/>
<path d="M18.1846 125.708L11.3881 125.848L7.93814 125.91C6.78296 125.91 5.6226 125.91 4.46741 125.936H4.23949V125.708L4.2084 119.911V119.662H4.46741L11.326 119.693C13.6104 119.693 15.9001 119.75 18.1846 119.776H18.3296V119.916C18.3296 120.895 18.2882 121.874 18.2623 122.843L18.1846 125.708ZM18.1846 125.708L18.112 122.77C18.0861 121.807 18.0551 120.854 18.0447 119.906L18.1846 120.046C15.9001 120.072 13.6104 120.129 11.326 120.129L4.46741 120.18L4.72642 119.927L4.70052 125.723L4.46741 125.49C5.5967 125.49 6.72598 125.49 7.86044 125.516L11.269 125.578L18.1846 125.708Z" fill="#EBEBEB"/>
<path d="M215.467 125.708L208.665 125.848L205.215 125.91C204.065 125.91 202.905 125.91 201.75 125.936H201.517V125.708L201.491 119.911V119.662H201.75L208.608 119.693C210.893 119.693 213.182 119.75 215.467 119.776H215.607V119.916C215.607 120.895 215.565 121.874 215.539 122.843L215.467 125.708ZM215.467 125.708L215.394 122.776C215.394 121.812 215.332 120.859 215.327 119.911L215.467 120.051C213.182 120.077 210.893 120.134 208.608 120.134L201.75 120.165L202.009 119.911L201.978 125.708L201.75 125.475C202.879 125.475 204.008 125.475 205.138 125.5L208.546 125.563L215.467 125.708Z" fill="#EBEBEB"/>
<path d="M207.816 22.8964L201.014 23.0415L197.564 23.0985C196.414 23.0985 195.254 23.0985 194.099 23.1295H193.886V22.8964V17.0998V16.8408H194.15L201.009 16.8719C203.293 16.8719 205.578 16.934 207.868 16.9599H208.007V17.0946C208.007 18.0789 207.961 19.0579 207.94 20.0214L207.816 22.8964ZM207.816 22.8964L207.743 19.9696C207.717 19.0009 207.681 18.0478 207.671 17.0998L207.816 17.2397C205.526 17.2397 203.242 17.3225 200.957 17.3277L194.099 17.3588L194.358 17.0998L194.327 22.8964L194.099 22.6633C195.228 22.6633 196.352 22.6633 197.486 22.6944L200.895 22.7514L207.816 22.8964Z" fill="#EBEBEB"/>
<path d="M215.467 30.2057L208.665 30.3507L205.215 30.4077C204.065 30.4077 202.905 30.4077 201.75 30.4388H201.517V30.2057L201.491 24.409V24.15H201.75L208.608 24.1811C210.893 24.1811 213.182 24.2433 215.467 24.2692H215.607V24.409C215.607 25.3933 215.565 26.3723 215.539 27.3359L215.467 30.2057ZM215.467 30.2057L215.394 27.2789C215.394 26.3102 215.332 25.357 215.327 24.409L215.467 24.5489C213.182 24.5489 210.893 24.6318 208.608 24.637L201.75 24.6681L202.009 24.409L201.978 30.2057L201.75 29.9726C202.879 29.9726 204.008 29.9726 205.138 30.0037L208.546 30.0606L215.467 30.2057Z" fill="#EBEBEB"/>
<path d="M25.8357 22.8964L19.0393 23.0415L15.5893 23.0985C14.4341 23.0985 13.2737 23.0985 12.1185 23.1295H11.8906V22.8964L11.8595 17.0946V16.8356H12.1185L18.9771 16.8667C21.2668 16.8667 23.5512 16.9288 25.8357 16.9547H25.9807V17.0946C25.9807 18.0788 25.9341 19.0579 25.9134 20.0214L25.8357 22.8964ZM25.8357 22.8964L25.7632 19.9696C25.7632 19.0009 25.7062 18.0478 25.6958 17.0998L25.8357 17.2397C23.5512 17.2397 21.2668 17.3225 18.9771 17.3277L12.1185 17.3588L12.3775 17.0998V22.8964L12.1444 22.6633C13.2737 22.6633 14.403 22.6633 15.5375 22.6944L18.946 22.7514L25.8357 22.8964Z" fill="#EBEBEB"/>
<path d="M196.808 0H196.29V48.9476H196.808V0Z" fill="#C7C7C7"/>
<path d="M175.108 69.6217L176.828 73.4136H216.28L218 69.6217L201.206 57.9974H191.902L175.108 69.6217Z" fill="#EBEBEB"/>
<path d="M190.737 46.7978L191.902 57.9974H201.206L202.371 46.7978H190.737Z" fill="#DBDBDB"/>
<path d="M175.108 69.6217L176.833 73.4136H216.28L218 69.6217H175.108Z" fill="#DBDBDB"/>
<path d="M150.761 0H150.243V36.7172H150.761V0Z" fill="#C7C7C7"/>
<path d="M129.056 57.3861L130.781 61.178H170.228L171.948 57.3861L155.154 45.7618H145.85L129.056 57.3861Z" fill="#EBEBEB"/>
<path d="M144.685 34.5622L145.85 45.7618H155.154L156.319 34.5622H144.685Z" fill="#DBDBDB"/>
<path d="M129.061 57.3913L130.786 61.1832H170.228L171.948 57.3913H129.061Z" fill="#DBDBDB"/>
<path d="M21.0647 60.774C22.5276 61.3624 24.0755 61.7121 25.6492 61.81C29.4214 62.0562 33.1477 60.8713 36.0848 58.4915C39.0219 56.1117 40.9539 52.7121 41.4953 48.9709C42.0367 45.2297 41.1478 41.4219 39.0058 38.3071C36.8638 35.1923 33.6263 32.9996 29.9391 32.1663C26.2518 31.3331 22.386 31.9205 19.1128 33.8115C15.8396 35.7025 13.3996 38.758 12.2796 42.3685C11.1596 45.979 11.4419 49.879 13.0703 53.2905C14.6986 56.702 17.5533 59.3742 21.0647 60.774Z" fill="#EBEBEB"/>
<path d="M21.7589 45.9224C21.9198 46.8115 22.3408 47.633 22.9685 48.283C23.5963 48.9329 24.4027 49.3821 25.2858 49.5737C26.1688 49.7654 27.0889 49.6909 27.9296 49.3596C28.7703 49.0284 29.4939 48.4553 30.0089 47.7128C30.524 46.9704 30.8073 46.0919 30.823 45.1884C30.8388 44.2849 30.5863 43.3971 30.0974 42.6371C29.6086 41.8771 28.9054 41.2791 28.0768 40.9188C27.2481 40.5585 26.3312 40.4519 25.442 40.6127C24.2501 40.8296 23.1929 41.5104 22.5024 42.5059C21.8119 43.5013 21.5445 44.73 21.7589 45.9224Z" fill="white"/>
<path d="M20.728 58.9195L21.0647 60.774C22.5276 61.3623 24.0755 61.7121 25.6492 61.81C27.6385 61.9353 29.6327 61.6612 31.5143 61.0037C33.396 60.3462 35.127 59.3188 36.6053 57.9819L36.2686 56.1325C35.8956 54.0717 34.7192 52.2435 32.9982 51.05C31.2773 49.8566 29.1527 49.3957 27.0919 49.7687C25.0311 50.1417 23.2029 51.3181 22.0094 53.039C20.816 54.76 20.355 56.8846 20.728 58.9454V58.9195Z" fill="white"/>
<path d="M161.147 147.589C162.56 149.114 164.419 150.153 166.458 150.556C168.497 150.96 170.612 150.708 172.499 149.835C174.386 148.963 175.948 147.516 176.962 145.701C177.975 143.886 178.388 141.797 178.142 139.733C177.895 137.669 177.001 135.736 175.588 134.211C174.175 132.687 172.316 131.649 170.277 131.246C168.237 130.843 166.123 131.096 164.236 131.969C162.35 132.841 160.788 134.289 159.775 136.104C158.767 137.92 158.357 140.007 158.603 142.069C158.85 144.13 159.74 146.062 161.147 147.589Z" fill="#EBEBEB"/>
<path d="M165.778 139.021C165.618 139.591 165.63 140.197 165.813 140.76C165.996 141.324 166.343 141.82 166.809 142.187C167.275 142.553 167.839 142.773 168.43 142.819C169.021 142.864 169.612 142.734 170.128 142.443C170.645 142.152 171.064 141.715 171.331 141.186C171.599 140.658 171.704 140.061 171.633 139.473C171.561 138.885 171.317 138.331 170.93 137.881C170.544 137.432 170.033 137.107 169.462 136.949C168.699 136.738 167.883 136.838 167.193 137.226C166.503 137.614 165.995 138.259 165.778 139.021Z" fill="white"/>
<path d="M161.479 146.397L161.147 147.589C162.39 148.928 163.982 149.894 165.743 150.38C167.504 150.866 169.366 150.852 171.119 150.339L171.451 149.153C171.735 147.858 171.513 146.503 170.828 145.367C170.143 144.231 169.049 143.401 167.771 143.048C166.493 142.695 165.128 142.845 163.957 143.468C162.787 144.091 161.9 145.14 161.479 146.397Z" fill="white"/>
<path d="M50.8508 71.2846C50.4372 69.5925 50.5348 67.8157 51.1311 66.1789C51.7274 64.5422 52.7958 63.1192 54.201 62.0897C55.6062 61.0603 57.2852 60.4707 59.0255 60.3956C60.7659 60.3204 62.4894 60.7631 63.9781 61.6677C65.4668 62.5722 66.6538 63.8979 67.389 65.4771C68.1241 67.0564 68.3744 68.8181 68.1082 70.5396C67.8419 72.2611 67.0711 73.865 65.8932 75.1484C64.7154 76.4317 63.1833 77.3369 61.4909 77.7495C59.2227 78.3024 56.8278 77.932 54.8325 76.7197C52.8373 75.5074 51.4051 73.5525 50.8508 71.2846Z" fill="#EBEBEB"/>
<path d="M63.8945 70.3003C62.5632 72.9785 59.4033 74.574 59.4033 74.574C59.4033 74.574 56.2382 72.9785 54.9121 70.3003C53.8035 68.0625 54.508 65.6382 56.2537 65.1202C58.761 64.3638 59.4033 68.7463 59.4033 68.7463C59.4033 68.7463 60.0456 64.3846 62.5529 65.1202C64.2986 65.6434 65.0031 68.0625 63.8945 70.3003Z" fill="white"/>
<path d="M190.902 105.629C191.178 103.909 191.957 102.309 193.141 101.032C194.326 99.7547 195.863 98.8575 197.557 98.4537C199.252 98.05 201.028 98.1578 202.661 98.7637C204.294 99.3695 205.711 100.446 206.732 101.857C207.754 103.269 208.333 104.951 208.398 106.692C208.463 108.433 208.011 110.153 207.097 111.637C206.184 113.12 204.852 114.3 203.268 115.025C201.684 115.751 199.921 115.991 198.201 115.715C195.896 115.345 193.833 114.074 192.464 112.183C191.095 110.292 190.534 107.934 190.902 105.629Z" fill="#EBEBEB"/>
<path d="M203.304 109.779C201.04 111.737 197.507 111.975 197.507 111.975C197.507 111.975 195.207 109.281 195.026 106.277C194.876 103.785 196.456 101.832 198.274 102.024C200.864 102.298 199.776 106.567 199.776 106.567C199.776 106.567 202.061 102.796 204.081 104.469C205.485 105.676 205.195 108.147 203.304 109.779Z" fill="white"/>
<path fill-rule="evenodd" clip-rule="evenodd" d="M89.9871 105.417C89.5831 105.168 89.236 104.8 88.6921 104.852C88.4849 104.852 88.5315 104.702 88.5315 104.593C88.5315 102.563 88.5315 100.532 88.5056 98.5065C88.5056 98.3563 88.5056 98.2371 88.6765 98.1542C90.2306 97.3668 90.8885 95.8283 91.8313 94.5281C92.3164 93.8736 92.6647 93.128 92.8551 92.3358C93.0456 91.5437 93.0744 90.7213 92.9398 89.9177C92.8777 89.4619 93.0901 89.2598 93.4993 89.1614C93.7062 89.0919 93.9299 89.0895 94.1382 89.1546C94.3466 89.2198 94.5291 89.349 94.6596 89.524C95.1082 90.3516 95.4097 91.2508 95.5506 92.1815C95.6439 92.9481 95.3693 93.6993 95.2761 94.4608C95.2087 95.015 95.0792 95.5693 94.9756 96.134C95.1103 96.2324 95.2709 96.1806 95.416 96.1806H100.56C101.28 96.1806 101.632 96.3826 101.736 96.8644C101.793 97.1591 101.751 97.4644 101.617 97.7331C101.483 98.0017 101.265 98.2189 100.995 98.3511C100.866 98.4184 100.638 98.3511 100.622 98.5583C100.607 98.7655 100.845 98.7448 100.964 98.8277C101.586 99.2472 101.482 100.128 100.757 100.636C100.586 100.76 100.239 100.703 100.239 100.957C100.239 101.211 100.55 101.154 100.695 101.299C101.213 101.791 100.948 102.718 100.202 103.091C100.099 103.123 99.999 103.163 99.902 103.21C99.8191 103.267 99.7362 103.329 99.902 103.448C100.648 103.966 100.638 104.712 99.902 105.251L99.6792 105.417C99.408 105.578 99.0917 105.647 98.7779 105.614L90.7123 105.645C90.5823 105.659 90.4507 105.646 90.3259 105.607C90.2011 105.567 90.0857 105.503 89.9871 105.417Z" fill="#EBEBEB"/>
<path fill-rule="evenodd" clip-rule="evenodd" d="M82.336 101.868C82.336 100.579 82.336 99.2783 82.336 97.9988C82.336 97.7346 82.336 97.6103 82.683 97.6103C84.2578 97.6103 85.8291 97.6103 87.397 97.6103C87.7078 97.6103 87.7544 97.7139 87.7544 97.9885C87.7544 100.582 87.7544 103.172 87.7544 105.759C87.7544 106.09 87.6716 106.184 87.34 106.178C85.786 106.178 84.2889 106.178 82.7659 106.178C82.3878 106.178 82.3308 106.049 82.336 105.717C82.3567 104.443 82.3412 103.158 82.336 101.868Z" fill="#EBEBEB"/>
<path d="M1.93427 190.786L28.9438 190.662L55.9533 190.615L109.967 190.533L163.981 190.615L190.99 190.662L218 190.786L190.99 190.916L163.981 190.962L109.967 191.045L55.9533 190.962L28.9438 190.916L1.93427 190.786Z" fill="#263238"/>
<path d="M109.967 237.973C165.947 237.973 211.328 231.592 211.328 223.722C211.328 215.852 165.947 209.471 109.967 209.471C53.9871 209.471 8.60638 215.852 8.60638 223.722C8.60638 231.592 53.9871 237.973 109.967 237.973Z" fill="#EBEBEB"/>
<path d="M118.628 62.0282C120.902 47.0196 110.578 33.0094 95.57 30.7354C80.5615 28.4613 66.5512 38.7847 64.2772 53.7932C62.0032 68.8017 72.3265 82.812 87.335 85.086C102.344 87.36 116.354 77.0367 118.628 62.0282Z" fill="#92E3A9"/>
<path opacity="0.1" d="M86.7961 85.0017C82.5416 84.317 78.508 82.6404 75.0217 80.1075C71.5353 77.5747 68.6941 74.2567 66.728 70.4221C64.7619 66.5875 63.726 62.3439 63.7041 58.0347C63.6823 53.7255 64.6751 49.4716 66.6023 45.6173C68.5294 41.763 71.3368 38.4164 74.7973 35.8483C78.2578 33.2803 82.2742 31.5629 86.5216 30.835C90.7689 30.1072 95.128 30.3893 99.2461 31.6587C103.364 32.9281 107.126 35.149 110.226 38.1417C105.95 34.3262 100.442 32.1797 94.7113 32.0956C88.9809 32.0115 83.4122 33.9955 79.0258 37.6839C74.6394 41.3723 71.7293 46.518 70.8288 52.1779C69.9283 57.8377 71.0978 63.6325 74.123 68.5C77.1481 73.3676 81.8262 76.9818 87.2997 78.6803C92.7733 80.3788 98.6756 80.0476 103.925 77.7476C109.174 75.4476 113.419 71.3328 115.88 66.1574C118.342 60.9821 118.856 55.0928 117.328 49.5692C118.751 54.0384 119.005 58.7974 118.066 63.3926C117.127 67.9878 115.027 72.2658 111.965 75.8188C108.904 79.3718 104.983 82.0812 100.577 83.6888C96.1708 85.2963 91.4264 85.7483 86.7961 85.0017Z" fill="black"/>
<path d="M75.2599 49.8386C75.2686 49.2803 75.3885 48.7293 75.6127 48.2178C75.8368 47.7064 76.1606 47.2448 76.5653 46.86C76.9845 46.4439 77.4929 46.1286 78.052 45.9379C78.6254 45.7461 79.2365 45.6946 79.834 45.7877C80.4287 45.8883 80.9914 46.1279 81.4761 46.487C81.9457 46.8452 82.3297 47.3035 82.6002 47.8287C82.862 48.3217 83.023 48.8619 83.0737 49.4178C83.1244 49.9737 83.0638 50.5341 82.8955 51.0663C82.8357 50.0522 82.4988 49.0739 81.9216 48.2379C81.6619 47.8579 81.3287 47.5337 80.9417 47.2846C80.5547 47.0355 80.1216 46.8664 79.6682 46.7875C79.2134 46.7185 78.7493 46.7427 78.3041 46.8585C77.8588 46.9742 77.4418 47.1792 77.0781 47.4609C76.2645 48.0707 75.6352 48.8936 75.2599 49.8386Z" fill="#263238"/>
<path d="M101.161 54.0138C101.169 53.4559 101.288 52.9051 101.511 52.3937C101.734 51.8823 102.057 51.4205 102.461 51.0352C102.881 50.6202 103.389 50.3051 103.948 50.1131C104.521 49.9179 105.133 49.8658 105.731 49.9615C106.328 50.0572 106.894 50.2978 107.377 50.6622C107.847 51.0205 108.231 51.4788 108.501 52.0039C108.764 52.4965 108.926 53.0368 108.976 53.5928C109.027 54.1489 108.966 54.7095 108.796 55.2415C108.736 54.2276 108.399 53.2496 107.823 52.4131C107.568 52.0285 107.237 51.7008 106.849 51.4508C106.462 51.2008 106.027 51.034 105.571 50.961C105.116 50.888 104.651 50.9102 104.204 51.0265C103.758 51.1427 103.341 51.3503 102.979 51.6361C102.164 52.2442 101.534 53.0676 101.161 54.0138Z" fill="#263238"/>
<path d="M97.9232 52.2319C97.8414 53.0111 97.602 53.7656 97.2195 54.4494C96.8369 55.1333 96.3192 55.7321 95.6979 56.2095C95.0766 56.6869 94.3647 57.0329 93.6054 57.2264C92.8461 57.42 92.0554 57.457 91.2814 57.3353C90.5074 57.2135 89.7662 56.9356 89.103 56.5183C88.4398 56.1011 87.8684 55.5532 87.4236 54.9082C86.9788 54.2631 86.6699 53.5343 86.5158 52.766C86.3616 51.9978 86.3653 51.2063 86.5267 50.4395L97.9232 52.2319Z" fill="#263238"/>
<path d="M96.0998 55.6093C95.4603 56.1907 94.6987 56.6214 93.8709 56.8695C93.0431 57.1177 92.1701 57.1772 91.3163 57.0435C90.4625 56.9098 89.6495 56.5864 88.9372 56.097C88.2249 55.6077 87.6313 54.9649 87.2002 54.2159C88.6058 53.3477 90.2755 53.0109 91.9077 53.2665C93.5399 53.5221 95.0268 54.3531 96.0998 55.6093Z" fill="#C95F50"/>
<path d="M74.8144 49.6417C74.8144 49.6417 70.6702 48.2224 67.9713 49.7868C65.2725 51.3512 66.1013 54.449 68.8468 54.6769C71.5923 54.9048 74.8144 49.6417 74.8144 49.6417Z" fill="white"/>
<path d="M109.449 55.2415C109.449 55.2415 113.816 55.5575 115.665 58.0492C117.515 60.5408 115.577 63.0532 112.951 62.1933C110.325 61.3334 109.449 55.2415 109.449 55.2415Z" fill="white"/>
<path d="M44.1782 88.2639C45.3067 76.6287 36.7894 66.2816 25.1542 65.1531C13.519 64.0246 3.17194 72.5419 2.0434 84.1771C0.914863 95.8123 9.43219 106.159 21.0674 107.288C32.7026 108.416 43.0496 99.8991 44.1782 88.2639Z" fill="#92E3A9"/>
<path opacity="0.1" d="M29.1873 106.489C26.0061 107.438 22.6463 107.625 19.3795 107.035C16.1126 106.446 13.0303 105.096 10.3814 103.095C7.73244 101.094 5.59128 98.4986 4.13083 95.5175C2.67038 92.5364 1.9316 89.2535 1.97415 85.9342C2.01671 82.6148 2.83941 79.352 4.37581 76.4093C5.9122 73.4666 8.11921 70.9266 10.8185 68.9944C13.5179 67.0621 16.6338 65.7919 19.9147 65.2862C23.1956 64.7806 26.5495 65.0538 29.7053 66.0837C25.4584 64.8737 20.9177 65.2347 16.9152 67.1003C12.9128 68.966 9.71667 72.2115 7.91252 76.242C6.10836 80.2725 5.817 84.8182 7.09184 89.0461C8.36667 93.274 11.1223 96.901 14.8538 99.2623C18.5853 101.624 23.0428 102.561 27.4094 101.904C31.7761 101.246 35.7594 99.0364 38.6296 95.6804C41.4998 92.3245 43.0645 88.0467 43.0371 83.6308C43.0098 79.215 41.3921 74.9569 38.4805 71.6368C40.9699 74.2595 42.746 77.476 43.6397 80.9798C44.5333 84.4837 44.5146 88.158 43.5854 91.6525C42.6562 95.147 40.8474 98.3454 38.3315 100.943C35.8156 103.54 32.6764 105.449 29.2132 106.489H29.1873Z" fill="black"/>
<path d="M9.71491 87.0945C9.51817 86.7067 9.40373 86.2824 9.37877 85.8483C9.35381 85.4142 9.41887 84.9796 9.56986 84.5718C9.72075 84.1336 9.96866 83.7352 10.2951 83.4062C10.6369 83.0753 11.0523 82.8303 11.5073 82.6914C11.965 82.5571 12.4485 82.5358 12.9163 82.6292C13.3701 82.7253 13.7967 82.9218 14.1647 83.2042C14.5127 83.4647 14.8032 83.7943 15.018 84.1722C15.2328 84.5501 15.3673 84.9683 15.4131 85.4006C15.0136 84.7356 14.4429 84.19 13.7606 83.8206C13.4634 83.6486 13.1343 83.5388 12.7933 83.498C12.4523 83.4571 12.1066 83.486 11.7771 83.5829C11.4476 83.6798 11.1413 83.8427 10.8767 84.0617C10.6122 84.2806 10.3949 84.5511 10.2381 84.8567C9.86961 85.5435 9.68912 86.3155 9.71491 87.0945Z" fill="#263238"/>
<path d="M34.44 78.4488C34.6073 79.0124 34.6042 79.6129 34.4308 80.1747C34.2575 80.7365 33.9218 81.2345 33.466 81.6058C33.0102 81.9772 32.4547 82.2054 31.8694 82.2616C31.2842 82.3178 30.6954 82.1996 30.1772 81.9218C29.6591 81.644 29.2347 81.2191 28.9576 80.7005C28.6805 80.182 28.563 79.593 28.62 79.0079C28.677 78.4227 28.9059 77.8675 29.2779 77.4122C29.6498 76.9569 30.1482 76.6218 30.7103 76.4492C31.0864 76.3344 31.4816 76.2952 31.873 76.3336C32.2644 76.3721 32.6443 76.4876 32.9909 76.6734C33.3376 76.8592 33.644 77.1117 33.8927 77.4164C34.1414 77.7211 34.3274 78.072 34.44 78.4488Z" fill="#263238"/>
<path d="M17.5474 84.3076C17.5474 84.3076 18.8942 86.1258 22.1215 85.8305C22.1215 85.8305 21.6656 91.9069 17.8427 90.4927C14.0197 89.0785 17.5474 84.3076 17.5474 84.3076Z" fill="#C95F50"/>
<path d="M16.3715 82.5152C17.0228 83.6323 17.9884 84.5331 19.1481 85.1053C20.2831 85.5769 21.5499 85.6247 22.7172 85.24C23.9102 84.948 24.9539 84.227 25.6492 83.2146C26.3231 82.1223 26.6965 80.8714 26.7319 79.5884C27.0717 80.9371 26.9116 82.3633 26.2812 83.6031C25.943 84.2403 25.4691 84.7955 24.8929 85.2297C24.3135 85.649 23.6647 85.9629 22.9762 86.1569C22.2896 86.3515 21.5753 86.4303 20.8627 86.39C20.1431 86.3366 19.4442 86.1243 18.8165 85.7684C17.6087 85.0441 16.7314 83.8768 16.3715 82.5152Z" fill="#263238"/>
<path d="M18.5834 88.8713C18.6162 88.2919 18.7368 87.7207 18.9409 87.1774C19.1224 86.6212 19.3898 86.0969 19.7334 85.6233C19.7049 86.2029 19.5861 86.7744 19.3812 87.3173C19.1956 87.8727 18.9266 88.3967 18.5834 88.8713Z" fill="#263238"/>
<path d="M176.139 67.8967H128.264V94.3053H176.139V67.8967Z" fill="#455A64"/>
<path d="M119.032 94.3105H128.264V86.0792L119.032 94.3105Z" fill="#455A64"/>
<path d="M155.791 72.7765H134.086V73.3722H155.791V72.7765Z" fill="white"/>
<path d="M170.544 75.9882H134.086V76.5839H170.544V75.9882Z" fill="white"/>
<path d="M170.544 79.1999H134.086V79.7956H170.544V79.1999Z" fill="white"/>
<path d="M163.556 82.4116H134.086V83.0074H163.556V82.4116Z" fill="white"/>
<path d="M170.544 85.6233H134.086V86.2191H170.544V85.6233Z" fill="white"/>
<path d="M147.498 88.8351H134.086V89.4308H147.498V88.8351Z" fill="white"/>
<path d="M196.191 98.9364H148.637V118.523H196.191V98.9364Z" fill="#92E3A9"/>
<path d="M148.653 110.67V118.523H139.106L148.653 110.67Z" fill="#92E3A9"/>
<path d="M190.478 103.811H154.424V104.407H190.478V103.811Z" fill="white"/>
<path d="M174.994 107.023H154.424V107.618H174.994V107.023Z" fill="white"/>
<path d="M182.231 110.234H154.424V110.83H182.231V110.234Z" fill="white"/>
<path d="M164.11 113.446H154.424V114.042H164.11V113.446Z" fill="white"/>
<path d="M118.805 111.317L118.514 111.063C118.737 110.804 118.975 110.545 119.214 110.291L119.499 110.556C119.26 110.809 119.027 111.063 118.805 111.317Z" fill="#263238"/>
<path d="M130.294 143.274V142.885C130.957 142.885 131.636 142.828 132.314 142.75L132.361 143.139C131.662 143.212 130.968 143.258 130.294 143.274ZM127.704 143.155C127.018 143.078 126.337 142.963 125.663 142.813L125.751 142.434C126.409 142.582 127.075 142.693 127.746 142.766L127.704 143.155ZM134.879 142.709L134.796 142.331C135.443 142.186 136.101 142.01 136.759 141.813L136.873 142.186C136.226 142.383 135.552 142.564 134.894 142.709H134.879ZM123.192 142.072C122.547 141.827 121.917 141.543 121.307 141.222L121.488 140.875C122.085 141.188 122.699 141.466 123.327 141.709L123.192 142.072ZM139.297 141.31L139.147 140.948C139.769 140.694 140.39 140.43 141.002 140.119L141.173 140.466C140.572 140.772 139.94 141.051 139.313 141.31H139.297ZM119.095 139.844C118.54 139.435 118.012 138.99 117.515 138.513L117.784 138.233C118.274 138.699 118.793 139.133 119.338 139.534L119.095 139.844ZM143.416 139.249L143.214 138.917C143.789 138.57 144.358 138.197 144.913 137.803L145.135 138.125C144.612 138.518 144.032 138.896 143.452 139.249H143.416ZM115.79 136.591C115.369 136.044 114.983 135.472 114.634 134.877L114.971 134.68C115.31 135.261 115.686 135.819 116.095 136.353L115.79 136.591ZM147.166 136.545L146.912 136.249C147.43 135.819 147.922 135.358 148.415 134.887L148.684 135.167C148.223 135.643 147.715 136.109 147.202 136.545H147.166ZM150.466 133.312L150.176 133.053C150.621 132.566 151.067 132.017 151.502 131.499L151.802 131.743C151.409 132.297 150.948 132.82 150.502 133.312H150.466ZM113.505 132.551C113.251 131.908 113.034 131.251 112.858 130.582L113.236 130.484C113.407 131.136 113.617 131.778 113.863 132.406L113.505 132.551ZM153.393 129.727L153.077 129.494C153.481 128.976 153.874 128.396 154.263 127.837L154.584 128.054C154.211 128.624 153.817 129.178 153.413 129.727H153.393ZM112.407 128.044C112.333 127.378 112.295 126.709 112.293 126.039V125.982H112.682V126.044C112.682 126.699 112.718 127.352 112.79 128.002L112.407 128.044ZM156.009 125.925L155.682 125.713C156.05 125.143 156.418 124.573 156.781 123.988L157.107 124.195C156.765 124.78 156.397 125.361 156.029 125.925H156.009ZM112.863 123.459L112.48 123.402C112.575 122.721 112.707 122.045 112.873 121.377L113.251 121.47C113.094 122.126 112.971 122.79 112.884 123.459H112.863ZM158.449 122.014L158.117 121.812C158.469 121.232 158.822 120.652 159.153 120.061L159.485 120.263L158.449 122.014ZM114.003 119.051L113.64 118.916C113.878 118.279 114.158 117.642 114.458 117.02L114.805 117.191C114.536 117.803 114.262 118.429 114.028 119.051H114.003ZM160.826 118.072L160.495 117.87L161.557 116.119L161.888 116.321L160.826 118.072ZM116.038 114.964L115.707 114.757C116.069 114.182 116.458 113.607 116.867 113.052L117.178 113.286C116.805 113.84 116.416 114.404 116.064 115L116.038 114.964ZM163.24 114.14L162.909 113.933C163.271 113.358 163.644 112.783 164.017 112.213L164.344 112.426C163.997 113.006 163.624 113.581 163.266 114.151L163.24 114.14ZM165.768 110.307L165.447 110.084C165.835 109.525 166.234 108.97 166.638 108.416L166.949 108.644C166.569 109.2 166.184 109.765 165.794 110.338L165.768 110.307ZM168.493 106.613L168.187 106.37C168.617 105.826 169.052 105.293 169.482 104.78L169.783 105.034C169.379 105.552 168.944 106.08 168.503 106.624L168.493 106.613ZM171.466 103.122L171.181 102.858C171.648 102.34 172.129 101.858 172.606 101.381L172.881 101.656C172.43 102.143 171.958 102.635 171.492 103.132L171.466 103.122ZM174.73 99.9103L174.471 99.6202C174.989 99.1643 175.507 98.7137 176.025 98.2837L176.268 98.5842C175.781 99.0193 175.238 99.4596 174.756 99.9207L174.73 99.9103ZM178.289 97.0301L178.061 96.7193C178.61 96.3152 179.18 95.9215 179.749 95.5486L179.962 95.8749C179.423 96.2531 178.864 96.6468 178.315 97.0405L178.289 97.0301ZM182.122 94.5384L181.93 94.2017C182.516 93.865 183.122 93.5283 183.728 93.2175L183.909 93.5594C183.329 93.8806 182.728 94.2121 182.148 94.5488L182.122 94.5384ZM186.194 92.4664L186.033 92.1141C186.655 91.8344 187.292 91.565 187.924 91.3112L188.069 91.6738C187.463 91.9173 186.836 92.2074 186.22 92.4612L186.194 92.4664ZM190.452 90.7932L190.327 90.4254C190.97 90.2026 191.628 89.9954 192.286 89.7986L192.394 90.1715C191.768 90.358 191.115 90.5704 190.478 90.788L190.452 90.7932Z" fill="#263238"/>
<path d="M194.969 89.4671L194.876 89.0889L195.886 88.8506L195.974 89.2288L194.969 89.4671Z" fill="#263238"/>
<path d="M195.331 85.1519L191.379 90.3425L196.942 88.2393L215.985 87.3639L195.331 85.1519Z" fill="#92E3A9"/>
<path opacity="0.1" d="M195.331 85.1519L191.379 90.3425L196.942 88.2393L215.985 87.3639L195.331 85.1519Z" fill="black"/>
<path d="M197.093 89.783L191.379 90.3425L196.942 88.2393L197.093 89.783Z" fill="#263238"/>
<path d="M196.943 88.2393L215.985 87.3639L197.683 96.6882L196.943 88.2393Z" fill="#92E3A9"/>
<path d="M195.331 85.1519L189.649 78.3452L215.985 87.3639L195.331 85.1519Z" fill="#92E3A9"/>
<path d="M43.2722 223.308L139.106 223.722C162.417 205.431 164.805 178.333 148.187 161.912C138.132 151.976 125.363 153.981 113.2 152.401H113.168C108.931 151.847 104.777 150.847 100.834 148.775C88.3139 142.17 81.2533 126.588 70.722 113.482C69.4062 111.835 68.0248 110.241 66.5778 108.701C57.9166 99.4493 40.6769 99.1488 31.6582 112.151C8.75139 145.19 19.2465 194.371 43.2722 223.308Z" fill="#92E3A9"/>
<path opacity="0.2" d="M43.2722 223.308L139.106 223.722C162.417 205.431 164.805 178.333 148.187 161.912C138.132 151.976 125.363 153.981 113.2 152.401H113.168C108.931 151.847 104.777 150.847 100.834 148.775C88.3139 142.17 81.2533 126.588 70.722 113.482C69.4062 111.835 68.0248 110.241 66.5778 108.701C57.9166 99.4493 40.6769 99.1488 31.6582 112.151C8.75139 145.19 19.2465 194.371 43.2722 223.308Z" fill="black"/>
<path opacity="0.1" d="M41.1431 147.713C43.6607 187.005 89.0547 201.701 117.416 189.926C142.069 179.685 133.993 156.312 113.189 152.401H113.158C108.921 151.847 104.766 150.847 100.824 148.775C88.3035 142.17 81.2429 126.588 70.7116 113.482C55.0156 105.329 39.3041 118.927 41.1431 147.713Z" fill="black"/>
<path d="M125.689 226.421C124.306 225.903 93.0849 200.96 92.4943 199.256C92.2664 198.614 95.6387 193.853 99.8709 188.217C100.783 187 101.736 185.751 102.71 184.487C109.019 176.266 115.904 167.688 115.904 167.688L136.842 184.322L123.068 200.66L120.048 204.25C120.048 204.25 127.73 219.148 128.175 221.085C128.621 223.023 127.062 226.929 125.689 226.421Z" fill="#C95F50"/>
<path d="M125.689 226.421C124.306 225.903 93.0849 200.96 92.4944 199.256C92.2198 198.469 97.2498 191.61 102.71 184.487L123.068 200.66L120.048 204.25C120.048 204.25 127.73 219.148 128.175 221.085C128.621 223.023 127.062 226.929 125.689 226.421Z" fill="white"/>
<path d="M125.689 226.421C124.306 225.903 93.0849 200.96 92.4943 199.256C92.2664 198.614 95.6387 193.853 99.8709 188.217L120.048 204.276C120.048 204.276 127.73 219.174 128.175 221.111C128.621 223.049 127.062 226.929 125.689 226.421Z" fill="#92E3A9"/>
<path d="M126.238 224.82C121.11 220.51 100.006 203.581 94.6079 199.733C94.5613 199.701 94.5406 199.733 94.6079 199.764C99.5964 204.146 120.835 220.883 126.207 224.903C126.285 224.986 126.347 224.903 126.238 224.82Z" fill="#263238"/>
<path d="M127.062 218.361C126.494 217.88 125.832 217.523 125.119 217.312C124.405 217.1 123.656 217.039 122.918 217.133C121.586 217.292 120.367 217.958 119.514 218.993C119.488 219.024 119.545 219.07 119.576 219.044C120.582 218.149 121.851 217.605 123.192 217.493C124.534 217.381 125.875 217.707 127.015 218.423C127.062 218.454 127.103 218.392 127.062 218.361Z" fill="#263238"/>
<path d="M121.659 206.389C119.587 204.685 116.572 203.488 113.889 204.156C113.785 204.182 113.821 204.333 113.889 204.348C116.489 204.852 119.028 205.633 121.462 206.679C121.481 206.692 121.502 206.701 121.525 206.706C121.548 206.71 121.571 206.711 121.593 206.706C121.616 206.702 121.637 206.693 121.657 206.681C121.676 206.668 121.693 206.652 121.705 206.633C121.718 206.614 121.727 206.592 121.732 206.57C121.737 206.547 121.737 206.524 121.733 206.501C121.728 206.479 121.719 206.457 121.707 206.438C121.694 206.419 121.678 206.402 121.659 206.389Z" fill="#263238"/>
<path d="M122.773 208.311C120.7 206.612 117.68 205.41 115.002 206.083C114.899 206.109 114.935 206.254 115.002 206.27C117.601 206.774 120.138 207.555 122.57 208.601C122.59 208.614 122.611 208.624 122.634 208.629C122.656 208.634 122.68 208.634 122.703 208.63C122.726 208.626 122.747 208.617 122.767 208.605C122.786 208.592 122.803 208.576 122.817 208.557C122.83 208.538 122.839 208.516 122.844 208.494C122.849 208.471 122.85 208.448 122.846 208.425C122.841 208.402 122.833 208.38 122.82 208.361C122.808 208.341 122.792 208.324 122.773 208.311Z" fill="#263238"/>
<path d="M123.886 210.238C121.814 208.534 118.794 207.332 116.116 208.005C116.012 208.005 116.049 208.176 116.116 208.197C118.715 208.699 121.252 209.479 123.684 210.523C123.722 210.55 123.769 210.56 123.815 210.553C123.86 210.545 123.901 210.519 123.928 210.481C123.955 210.444 123.965 210.397 123.957 210.351C123.95 210.305 123.924 210.265 123.886 210.238Z" fill="#263238"/>
<path d="M124.99 212.16C122.918 210.456 119.898 209.254 117.219 209.927C117.116 209.953 117.152 210.098 117.219 210.119C119.818 210.621 122.355 211.401 124.788 212.445C124.806 212.458 124.827 212.467 124.85 212.473C124.872 212.478 124.895 212.478 124.918 212.474C124.941 212.471 124.962 212.462 124.982 212.45C125.001 212.438 125.018 212.422 125.031 212.403C125.044 212.385 125.054 212.363 125.059 212.341C125.064 212.319 125.065 212.296 125.061 212.273C125.057 212.25 125.049 212.229 125.037 212.209C125.024 212.19 125.008 212.173 124.99 212.16Z" fill="#263238"/>
<path d="M99.9124 195.811C97.5554 193.941 94.6441 197.598 97.0011 199.474C99.3581 201.349 102.269 197.697 99.9124 195.811Z" fill="white"/>
<path d="M128.393 202.608C128.036 200.883 126.01 200.675 124.627 201.054C122.264 201.768 120.131 203.092 118.442 204.892C118.433 204.898 118.426 204.906 118.422 204.916C118.417 204.925 118.414 204.936 118.414 204.946C118.414 204.957 118.417 204.967 118.422 204.977C118.426 204.986 118.433 204.995 118.442 205.001C118.418 205.047 118.406 205.097 118.406 205.149C118.406 205.2 118.418 205.251 118.441 205.297C118.464 205.343 118.498 205.383 118.54 205.413C118.581 205.444 118.629 205.464 118.68 205.472C120.996 205.633 123.456 206.094 125.751 205.534C127.114 205.224 128.73 204.245 128.393 202.608ZM122.265 205.006C121.12 204.959 119.991 204.851 118.851 204.84C120.033 204.059 121.253 203.338 122.508 202.68C123.122 202.371 123.755 202.103 124.404 201.877C125.414 201.551 128.87 201.442 127.253 203.887C126.368 205.239 123.622 205.068 122.265 205.006Z" fill="#263238"/>
<path d="M112.619 201.509C114.22 203.245 116.515 204.229 118.53 205.384C118.577 205.406 118.628 205.416 118.68 205.414C118.731 205.412 118.782 205.398 118.827 205.372C118.872 205.347 118.91 205.312 118.939 205.269C118.967 205.226 118.985 205.176 118.991 205.125C119.038 205.125 119.079 205.099 119.069 205.042C118.663 202.608 117.626 200.323 116.059 198.417C115.127 197.324 113.329 196.371 112.07 197.609C110.811 198.847 111.682 200.504 112.619 201.509ZM112.309 199.303C112.309 196.376 115.137 198.386 115.795 199.22C116.209 199.767 116.587 200.342 116.924 200.94C117.601 202.184 118.215 203.461 118.763 204.768C117.81 204.141 116.81 203.602 115.831 203.012C114.671 202.312 112.298 200.929 112.309 199.313V199.303Z" fill="#263238"/>
<path d="M157.982 152.339C156.547 163.217 129.745 194.609 126.647 198.215L125.943 199.033L103.751 181.996L104.005 181.664L123.529 156.1L65.2932 155.758L87.4074 138.565C87.4074 138.565 89.1998 139.601 92.9295 139.057C105.782 137.177 134.76 133.012 141.592 133.286C150.424 133.649 159.298 142.362 157.982 152.339Z" fill="#37474F"/>
<path d="M130.564 146.599C129.839 147.42 129.166 148.285 128.548 149.189C127.859 150.096 127.16 150.992 126.476 151.899V151.925C126.596 151.66 126.715 151.407 126.844 151.127C127.279 150.231 127.626 149.298 128.139 148.438C128.17 148.381 128.093 148.335 128.062 148.387C127.544 149.241 126.917 150.055 126.466 150.977C126.254 151.401 126.052 151.826 125.865 152.261C125.762 152.5 125.653 152.743 125.565 152.981C125.514 153.096 125.471 153.214 125.435 153.334C125.124 153.753 124.824 154.173 124.523 154.603C123.866 155.556 123.285 156.561 122.622 157.509C122.586 157.555 122.669 157.602 122.705 157.555C123.379 156.67 124.135 155.841 124.819 154.965C125.503 154.09 126.176 153.142 126.829 152.215C127.481 151.287 128.087 150.391 128.725 149.485C129.422 148.589 130.064 147.651 130.646 146.677C130.636 146.599 130.595 146.568 130.564 146.599Z" fill="#263238"/>
<path d="M75.4826 122.833C80.3054 135.198 95.6853 149.614 100.917 150.08C107.009 150.63 122.747 143.641 128.839 135.172C130.279 133.167 117.38 123.61 115.199 125.107C110.723 128.173 102.29 132.359 101.565 132.39C100.125 132.499 90.5518 125.003 82.9162 119.647C73.4054 112.99 73.5608 117.906 75.4826 122.833Z" fill="#C95F50"/>
<path d="M126.979 137.415C126.979 137.415 132.558 131.655 133.148 126.231C133.558 122.475 133.174 112.519 124.145 105.774C122.001 104.174 117.815 103.417 120.364 107.297C122.177 110.058 124.156 111.26 124.917 113.052C124.917 113.052 119.478 112.721 117.96 114.928C116.633 116.857 115.446 118.879 114.407 120.978C114.746 121.26 115.104 121.518 115.479 121.75C115.479 121.75 114.251 123.946 115.101 127.671L126.979 137.415Z" fill="#C95F50"/>
<path d="M113.65 101.91L107.434 121.595C107.191 122.17 107.434 122.662 108.03 122.693L118.354 123.289C118.669 123.284 118.977 123.19 119.24 123.016C119.504 122.843 119.712 122.598 119.841 122.309L126.031 102.625C126.28 102.05 126.031 101.558 125.44 101.521L115.147 100.936C114.831 100.94 114.523 101.033 114.257 101.206C113.992 101.378 113.782 101.622 113.65 101.91Z" fill="#A6A6A6"/>
<path d="M114.873 101.972L108.657 121.657C108.413 122.227 108.657 122.724 109.252 122.755L119.55 123.356C119.866 123.35 120.174 123.255 120.438 123.082C120.702 122.909 120.911 122.664 121.042 122.377L127.228 102.692C127.476 102.117 127.227 101.63 126.637 101.594L116.365 101.014C116.051 101.018 115.745 101.11 115.481 101.279C115.218 101.448 115.007 101.689 114.873 101.972Z" fill="#C7C7C7"/>
<path d="M117.644 103.049C117.63 103.222 117.566 103.387 117.458 103.522C117.351 103.658 117.206 103.759 117.041 103.812C116.876 103.866 116.699 103.869 116.533 103.822C116.366 103.774 116.217 103.679 116.105 103.547C115.993 103.415 115.922 103.253 115.902 103.081C115.882 102.909 115.913 102.735 115.992 102.581C116.071 102.427 116.194 102.299 116.345 102.215C116.496 102.131 116.669 102.093 116.841 102.107C116.956 102.116 117.068 102.148 117.17 102.2C117.272 102.252 117.363 102.324 117.438 102.412C117.513 102.499 117.569 102.601 117.605 102.71C117.64 102.82 117.653 102.935 117.644 103.049Z" fill="#263238"/>
<path d="M132.605 120.89C131.47 119.269 129.015 115.87 126.036 113.788C122.731 111.478 115.733 107.914 114.054 110.374C112.821 112.177 115.37 113.772 115.37 113.772C115.37 113.772 112.169 112.907 111.412 114.809C110.723 116.513 112.77 117.627 112.77 117.627C112.77 117.627 110.739 117.44 110.387 119.212C109.972 121.341 114.298 121.387 115.738 123.915C116.059 124.454 132.605 120.89 132.605 120.89Z" fill="#C95F50"/>
<path d="M124.176 117.689C121.737 115.514 118.692 114.135 115.448 113.736C115.365 113.736 115.313 113.788 115.391 113.809C118.459 114.754 121.402 116.067 124.156 117.72C124.156 117.72 124.192 117.704 124.176 117.689Z" fill="#263238"/>
<path d="M121.747 120.963C120.493 119.927 116.494 117.709 112.796 117.533C112.713 117.533 112.666 117.59 112.744 117.611C115.856 118.396 118.869 119.531 121.726 120.994C121.726 120.994 121.762 120.973 121.747 120.963Z" fill="#263238"/>
<path d="M115.039 123.014C115.039 124.211 115.039 125.371 115.173 126.526C115.225 127.106 115.318 127.676 115.422 128.246C115.549 128.819 115.706 129.384 115.893 129.94C115.168 128.961 114.739 127.794 114.66 126.578C114.606 125.977 114.606 125.371 114.66 124.77C114.713 124.171 114.84 123.581 115.039 123.014Z" fill="#263238"/>
<path d="M82.02 135.628L91.5308 125.003C91.5308 125.003 83.9677 118.523 78.4923 116.072C73.0168 113.622 72.2398 117.155 74.6486 122.486C77.0574 127.816 82.02 135.628 82.02 135.628Z" fill="#C7C7C7"/>
<path d="M89.0029 127.821L82.02 135.628C82.02 135.628 77.0574 127.816 74.6486 122.486C72.8407 118.476 72.82 115.482 75.2598 115.29L89.0029 127.821Z" fill="#A6A6A6"/>
<path d="M88.8112 123.392C87.2002 124.905 82.9576 129.147 80.5799 132.276C80.5799 132.276 80.6369 132.364 80.6524 132.343C83.0405 130.059 87.4489 125.143 88.9097 123.491C88.9408 123.459 88.8423 123.366 88.8112 123.392Z" fill="#263238"/>
<path d="M53.0213 162.14C53.1197 162.244 91.018 153.94 91.3547 153.499C91.8727 152.878 85.0711 124.376 77.9276 115.876C76.1405 113.747 70.4526 113.892 67.904 116.041C55.3006 126.666 52.6587 161.762 53.0213 162.14Z" fill="#EBEBEB"/>
<path fill-rule="evenodd" clip-rule="evenodd" d="M76.0473 114.71L67.1632 116.72C67.3964 116.487 67.6346 116.275 67.8729 116.073L74.9957 114.467C75.3518 114.522 75.7033 114.603 76.0473 114.71ZM77.3579 115.337L66.0236 117.896C65.8423 118.093 65.6714 118.29 65.5056 118.497L77.8085 115.72C77.6714 115.578 77.5204 115.449 77.3579 115.337ZM78.4405 116.497L64.6353 119.605C64.4903 119.792 64.3556 119.984 64.2209 120.18L78.7254 116.901C78.6477 116.772 78.5493 116.632 78.4405 116.497ZM79.2952 117.709L63.5009 121.273C63.3817 121.46 63.2626 121.646 63.1486 121.838L79.5646 118.108L79.2952 117.709ZM80.0516 118.942L62.527 122.9L62.2265 123.454L80.3002 119.372L80.0516 118.942ZM80.7509 120.18L61.6774 124.485L61.4081 125.003L80.9581 120.621L80.7509 120.18ZM81.3932 121.434L60.9211 126.06C60.8382 126.236 60.7605 126.417 60.6777 126.578L81.6056 121.848C81.5383 121.734 81.4761 121.589 81.3932 121.444V121.434ZM81.9993 122.698L60.2425 127.614L60.0249 128.132L82.2117 123.123C82.1392 122.998 82.0718 122.853 81.9941 122.708L81.9993 122.698ZM82.5795 123.972L59.6105 129.153C59.538 129.329 59.4707 129.505 59.4033 129.671L82.7763 124.392C82.709 124.273 82.6468 124.128 82.5795 123.983V123.972ZM83.1338 125.252L59.0355 130.696C58.9699 130.872 58.9078 131.045 58.849 131.214L83.3203 125.687L83.1338 125.252ZM83.6518 126.537L58.4916 132.235C58.4295 132.411 58.3725 132.582 58.3155 132.753L83.8279 126.992C83.7813 126.842 83.7191 126.692 83.6622 126.547L83.6518 126.537ZM84.1698 127.826L58.0047 133.737C57.9529 133.913 57.8959 134.084 57.8441 134.255L84.3408 128.267L84.1698 127.826ZM84.6878 129.121L57.5488 135.255L57.3934 135.773L84.8484 129.557L84.6878 129.121ZM85.1592 130.416L57.1292 136.757C57.0774 136.928 57.0308 137.104 56.9842 137.275L85.3043 130.872C85.2421 130.722 85.1903 130.572 85.1333 130.427L85.1592 130.416ZM85.6203 131.717L56.7148 138.249C56.6734 138.42 56.6267 138.591 56.5853 138.767L85.7498 132.178L85.6203 131.717ZM86.0658 133.017L56.3677 139.725C56.3194 139.898 56.2779 140.071 56.2434 140.243L86.216 133.473C86.1383 133.328 86.0917 133.177 86.0399 133.027L86.0658 133.017ZM86.5061 134.328L56.0103 141.212C55.9689 141.383 55.9326 141.554 55.8912 141.73L86.6511 134.783C86.5786 134.638 86.5268 134.488 86.4802 134.338L86.5061 134.328ZM86.9257 135.633L55.6788 142.694L55.57 143.212L87.0707 136.099C86.9982 135.949 86.9516 135.794 86.8998 135.643L86.9257 135.633ZM87.3401 136.943L55.368 144.165C55.3317 144.336 55.2954 144.507 55.2644 144.683L87.4799 137.43L87.3401 136.943ZM87.7441 138.259L55.0571 145.646C55.0261 145.817 54.9898 145.988 54.9639 146.164L87.8581 138.731C87.8063 138.57 87.7597 138.42 87.7182 138.27L87.7441 138.259ZM88.1327 139.57L54.7722 147.117C54.7412 147.283 54.7101 147.454 54.6842 147.635L88.2363 140.057C88.2104 139.865 88.1482 139.736 88.1068 139.58L88.1327 139.57ZM88.5108 140.891L54.5391 148.573C54.508 148.744 54.477 148.91 54.4511 149.091L88.6403 141.373C88.573 141.207 88.5315 141.057 88.4849 140.901L88.5108 140.891ZM88.8838 142.212L54.3008 150.018L54.2231 150.536L89.0133 142.683C88.9408 142.528 88.8993 142.378 88.8579 142.222L88.8838 142.212ZM89.2412 143.533L54.0781 151.474L54.0004 151.992L89.3396 144.009C89.3034 143.849 89.2464 143.698 89.2153 143.543L89.2412 143.533ZM89.5986 144.859L53.8553 152.93C53.8553 153.101 53.8087 153.261 53.788 153.448L89.7074 145.335C89.6504 145.175 89.6142 145.045 89.5728 144.869L89.5986 144.859ZM89.9354 146.185L53.674 154.375L53.6119 154.893L90.0545 146.662C89.9923 146.506 89.9509 146.351 89.9095 146.195L89.9354 146.185ZM90.2669 147.511L53.4876 155.799C53.4876 155.97 53.4513 156.136 53.4306 156.317L90.3653 147.972L90.2669 147.511ZM90.5829 148.842L53.3373 157.255C53.3373 157.428 53.3218 157.6 53.2907 157.773L90.6865 149.324C90.6295 149.189 90.5932 149.008 90.557 148.853L90.5829 148.842ZM90.8833 150.179L53.2026 158.69C53.2026 158.861 53.1716 159.027 53.1612 159.208L90.9766 150.666C90.9248 150.505 90.8937 150.35 90.8574 150.189L90.8833 150.179ZM91.1579 151.526L53.0887 160.125C53.0887 160.296 53.0887 160.462 53.0576 160.612L91.2459 151.987C91.1941 151.852 91.1631 151.702 91.132 151.536L91.1579 151.526ZM91.3858 152.878L52.9851 161.555C52.9769 161.715 52.9769 161.876 52.9851 162.036L91.3858 153.365C91.3862 153.205 91.3776 153.046 91.3599 152.888L91.3858 152.878Z" fill="#DBDBDB"/>
<path d="M76.2441 122.449C74.5191 122.646 70.7013 119.668 69.1058 117.041C69.0022 116.86 69.1938 114.902 69.3233 112.509C69.3907 111.058 69.4373 109.442 69.37 107.966L78.7461 109.804C78.299 111.67 78.0833 113.584 78.1038 115.503C78.1134 115.705 78.1429 115.907 78.1918 116.104C78.1918 116.135 78.1918 116.166 78.1918 116.202C78.4508 117.368 78.9429 122.139 76.2441 122.449Z" fill="#C95F50"/>
<path d="M78.1918 116.124C78.1918 116.155 78.1918 116.181 78.1918 116.228C77.877 116.283 77.5583 116.312 77.2387 116.316C71.9601 116.435 70.3853 110.069 70.0279 108.1L78.7461 109.82C78.3017 111.686 78.0843 113.6 78.0986 115.518C78.1152 115.722 78.1463 115.925 78.1918 116.124Z" fill="#263238"/>
<path d="M66.5209 96.5743C65.9666 99.9725 68.9556 109.162 71.556 110.949C75.3272 113.539 80.8804 113.094 82.9162 108.706C84.9002 104.448 80.7923 92.5389 77.9432 90.9797C73.7472 88.6797 67.3445 91.5598 66.5209 96.5743Z" fill="#C95F50"/>
<path d="M73.9182 99.3767C74.172 99.2265 74.3792 99.0452 74.6175 98.8587C74.8558 98.6722 75.1355 98.5324 75.234 98.2112C75.2637 98.113 75.2583 98.0076 75.2185 97.913C75.1788 97.8184 75.1073 97.7407 75.0164 97.6932C74.8325 97.6249 74.6336 97.6071 74.4404 97.6418C74.2473 97.6764 74.067 97.7621 73.9182 97.89C73.5772 98.1054 73.3281 98.4394 73.2189 98.8276C73.1907 98.9196 73.1911 99.018 73.2199 99.1098C73.2487 99.2016 73.3046 99.2826 73.3803 99.342C73.4559 99.4014 73.5478 99.4365 73.6438 99.4427C73.7399 99.4489 73.8355 99.4259 73.9182 99.3767Z" fill="#263238"/>
<path d="M80.0723 97.574C79.7858 97.5895 79.4988 97.5895 79.2124 97.574C78.9097 97.6255 78.5986 97.5764 78.3265 97.4342C78.2526 97.3729 78.2001 97.2896 78.1768 97.1964C78.1535 97.1032 78.1606 97.005 78.197 96.9162C78.303 96.7492 78.4514 96.6132 78.627 96.5222C78.8026 96.4312 78.9993 96.3884 79.1968 96.3981C79.5959 96.3625 79.9942 96.475 80.3157 96.7141C80.3943 96.7715 80.4534 96.8516 80.4852 96.9436C80.5169 97.0356 80.5197 97.1352 80.4932 97.2288C80.4666 97.3224 80.4121 97.4057 80.3369 97.4674C80.2616 97.5291 80.1693 97.5664 80.0723 97.574Z" fill="#263238"/>
<path d="M76.4721 106.51C76.6637 106.613 76.8709 106.774 77.104 106.727C77.3351 106.655 77.5485 106.535 77.7309 106.375C77.7309 106.375 77.7775 106.375 77.7671 106.375C77.7146 106.525 77.6222 106.657 77.4998 106.757C77.3774 106.858 77.2297 106.923 77.073 106.945C76.9359 106.949 76.8008 106.912 76.6846 106.839C76.5685 106.766 76.4765 106.661 76.4203 106.536C76.3995 106.525 76.4462 106.5 76.4721 106.51Z" fill="#263238"/>
<path d="M76.586 104.448C76.8171 104.647 77.087 104.796 77.3786 104.885C77.6702 104.974 77.9771 105.002 78.2799 104.966C78.5467 104.943 78.8086 104.88 79.0569 104.78C79.1051 104.765 79.1519 104.746 79.1968 104.723L79.3315 104.661C79.3621 104.644 79.3866 104.618 79.4015 104.586C79.4164 104.554 79.4209 104.519 79.4144 104.484L79.3885 104.422V104.37C79.2642 103.884 79.0051 103.163 79.0051 103.163C79.2072 103.2 80.2173 103.345 80.1344 103.096C79.447 100.938 78.5427 98.8555 77.4355 96.8799C77.4287 96.8648 77.4161 96.853 77.4005 96.8472C77.385 96.8414 77.3678 96.8419 77.3527 96.8488C77.3375 96.8557 77.3258 96.8683 77.32 96.8838C77.3141 96.8994 77.3147 96.9166 77.3216 96.9317C77.9484 98.9209 78.9171 100.791 79.575 102.785C79.2125 102.734 78.8445 102.734 78.4819 102.785C78.4198 102.822 79 104.163 79.0466 104.386C79.0484 104.395 79.0484 104.403 79.0466 104.412C78.6629 104.564 78.2528 104.638 77.8401 104.63C77.4274 104.622 77.0205 104.532 76.643 104.365C76.5705 104.355 76.5342 104.412 76.586 104.448Z" fill="#263238"/>
<path d="M78.7047 104.64C78.5375 105.06 78.2666 105.43 77.9173 105.717C77.7238 105.867 77.4883 105.952 77.2439 105.961C76.7258 105.961 76.5601 105.52 76.5342 105.101C76.5268 104.879 76.5442 104.656 76.586 104.438C77.2524 104.73 77.995 104.801 78.7047 104.64Z" fill="#263238"/>
<path d="M77.9173 105.712C77.7238 105.862 77.4883 105.947 77.2439 105.956C76.7258 105.956 76.5601 105.515 76.5342 105.096C76.8005 105.028 77.0817 105.052 77.3327 105.164C77.5836 105.276 77.7895 105.469 77.9173 105.712Z" fill="#FF9BBC"/>
<path d="M74.4466 100.91C74.4357 100.731 74.4732 100.552 74.5554 100.392C74.6023 100.307 74.6668 100.233 74.7445 100.175C74.8222 100.117 74.9113 100.076 75.006 100.055C75.1026 100.035 75.2024 100.038 75.2977 100.063C75.3929 100.088 75.4811 100.135 75.5552 100.2C75.6816 100.318 75.7792 100.463 75.8401 100.625C75.8789 100.721 75.9084 100.819 75.9281 100.92C75.9773 101.13 75.9773 101.348 75.9281 101.558C75.9034 101.405 75.8617 101.256 75.8038 101.112C75.7555 100.981 75.6966 100.855 75.6277 100.734C75.4826 100.485 75.2754 100.299 75.0682 100.361C74.861 100.423 74.7211 100.62 74.6901 100.905C74.6618 101.201 74.6618 101.5 74.6901 101.796C74.5423 101.523 74.459 101.22 74.4466 100.91Z" fill="#263238"/>
<path d="M80.5126 98.9779C80.4269 98.8254 80.3039 98.6971 80.1552 98.6049C80.0692 98.5591 79.9748 98.5313 79.8777 98.5233C79.7806 98.5153 79.6828 98.5272 79.5905 98.5583C79.4987 98.5941 79.4164 98.6506 79.3499 98.7234C79.2834 98.7961 79.2346 98.8832 79.2072 98.9779C79.1633 99.1478 79.1633 99.326 79.2072 99.4959C79.2293 99.5975 79.257 99.6978 79.2901 99.7963C79.3641 99.9923 79.4809 100.169 79.632 100.314C79.5708 100.173 79.5257 100.025 79.4973 99.874C79.473 99.7369 79.4557 99.5986 79.4455 99.4596C79.4455 99.1747 79.5128 98.9054 79.72 98.8432C79.8368 98.8142 79.9598 98.8243 80.0703 98.872C80.1807 98.9198 80.2724 99.0025 80.3313 99.1074C80.5077 99.3476 80.6603 99.6044 80.7871 99.874C80.7671 99.5579 80.6731 99.251 80.5126 98.9779Z" fill="#263238"/>
<path d="M80.3727 93.6785C77.5547 96.7141 72.2139 94.295 72.2139 94.295C72.0896 95.0832 71.7155 95.8107 71.1466 96.3702C70.5777 96.9298 69.8442 97.2919 69.054 97.4031C69.054 97.4031 69.6704 103.184 68.1837 103.511C65.9148 104.029 63.4749 96.481 63.8479 94.813C64.2209 93.145 66.0599 92.3162 66.0599 92.3162C66.062 91.3522 66.4326 90.4255 67.0959 89.7261C68.3754 88.172 74.0788 88.5761 74.0788 88.5761C74.2218 87.7925 74.5484 87.054 75.0319 86.4211C75.1466 86.2625 75.2925 86.129 75.4607 86.0289C75.6288 85.9288 75.8157 85.8641 76.0098 85.8389C76.2039 85.8136 76.4011 85.8284 76.5893 85.8822C76.7774 85.936 76.9526 86.0277 77.104 86.1517C76.9146 86.6322 76.8367 87.1494 76.8761 87.6643C76.9797 89.3738 78.3317 89.0682 77.9795 87.5763C77.8689 87.0114 77.558 86.5056 77.104 86.1517C77.5495 85.0224 78.5648 84.4578 79.3419 84.836C80.7405 85.5353 82.7193 91.1713 80.3727 93.6785Z" fill="#263238"/>
<path d="M75.6484 104.023C75.1559 104.12 74.6461 104.077 74.1768 103.899C73.7076 103.721 73.2977 103.415 72.9938 103.015C72.69 102.616 72.5042 102.139 72.4577 101.639C72.4112 101.14 72.5058 100.637 72.7307 100.188C72.9557 99.7394 73.302 99.3627 73.7303 99.101C74.1586 98.8393 74.6517 98.703 75.1537 98.7075C75.6556 98.712 76.1462 98.8572 76.5697 99.1266C76.9932 99.396 77.3327 99.7788 77.5495 100.231C77.8561 100.873 77.8964 101.609 77.6614 102.28C77.4265 102.951 76.9356 103.501 76.2959 103.811C76.0911 103.912 75.8731 103.983 75.6484 104.023ZM74.6745 99.1074C74.4849 99.1458 74.3006 99.2067 74.1254 99.2887C73.5896 99.5431 73.1709 99.9922 72.9546 100.545C72.7383 101.097 72.7407 101.711 72.9613 102.262C73.182 102.812 73.6042 103.258 74.142 103.508C74.6798 103.758 75.2928 103.794 75.8561 103.608C76.4193 103.422 76.8905 103.028 77.1736 102.507C77.4567 101.986 77.5305 101.376 77.3799 100.803C77.2292 100.229 76.8656 99.7341 76.3629 99.4192C75.8603 99.1042 75.2565 98.9927 74.6745 99.1074Z" fill="#92E3A9"/>
<path d="M81.3776 102.127C80.3416 102.278 79.3056 101.371 78.917 100.019C78.732 99.3763 78.7519 98.6919 78.974 98.061C79.0529 97.7836 79.2022 97.5312 79.4074 97.3285C79.6125 97.1258 79.8666 96.9796 80.1449 96.904C80.4233 96.8284 80.7165 96.8261 80.996 96.8972C81.2755 96.9683 81.5319 97.1104 81.7403 97.3099C82.2523 97.7432 82.6148 98.3268 82.7763 98.9779C83.1648 100.402 82.6157 101.801 81.5486 102.086L81.3776 102.127ZM80.3727 97.227L80.238 97.2529C80.0203 97.3231 79.8226 97.4444 79.6613 97.6066C79.5 97.7688 79.3798 97.9672 79.3107 98.1853C79.1129 98.7462 79.0966 99.3552 79.2641 99.9258C79.6008 101.164 80.5799 101.998 81.4553 101.744C82.3308 101.49 82.7659 100.309 82.4292 99.0711C82.2881 98.4927 81.9671 97.9739 81.5123 97.5896C81.3587 97.4522 81.1777 97.3488 80.9813 97.2863C80.7849 97.2238 80.5775 97.2036 80.3727 97.227Z" fill="#92E3A9"/>
<path d="M77.5599 100.558L77.2594 100.366C77.5391 99.9155 78.2954 99.1902 79.1346 99.6565L78.9585 99.9673C78.2074 99.5477 77.5858 100.496 77.5599 100.558Z" fill="#92E3A9"/>
<path d="M66.3914 104.899L66.0339 104.837C66.065 104.671 66.324 103.215 67.07 102.842C67.8159 102.469 72.4625 101.449 72.6594 101.402L72.7371 101.754C71.3851 102.055 67.7538 102.894 67.2306 103.163C66.7074 103.433 66.4535 104.495 66.3914 104.899Z" fill="#92E3A9"/>
<path d="M69.5616 103.982C69.5616 103.982 66.9715 101.273 65.7076 102.247C64.4436 103.22 66.7436 107.375 68.4375 107.722C68.6539 107.783 68.8805 107.8 69.1036 107.771C69.3266 107.742 69.5415 107.668 69.7352 107.554C69.9289 107.44 70.0974 107.287 70.2305 107.106C70.3636 106.925 70.4586 106.719 70.5096 106.5L69.5616 103.982Z" fill="#C95F50"/>
<path d="M66.3966 103.422C66.3655 103.422 66.3966 103.459 66.3966 103.464C67.6035 103.749 68.365 104.707 68.9504 105.733C68.8665 105.63 68.7613 105.546 68.642 105.488C68.5227 105.429 68.3922 105.397 68.2594 105.393C68.1266 105.39 67.9946 105.415 67.8724 105.468C67.7503 105.52 67.6409 105.598 67.5517 105.697C67.5258 105.722 67.5517 105.764 67.5932 105.754C67.7835 105.66 67.9977 105.628 68.207 105.66C68.4163 105.693 68.6107 105.789 68.7639 105.935C69.0174 106.182 69.2432 106.457 69.4373 106.753C69.5047 106.847 69.6808 106.753 69.6238 106.65C69.4063 105.158 67.9713 103.324 66.3966 103.422Z" fill="#263238"/>
<path d="M64.7752 126.557C67.4067 142.668 73.97 153.132 77.0419 153.639C85.3043 155.002 99.2804 141.487 103.461 138.316C105.144 137.032 91.4013 125.532 89.7799 127.106C85.9466 130.815 80.7975 136.638 80.5281 136.7C80.0101 136.83 78.0416 133.167 71.4421 122.807C66.0858 114.42 63.7029 119.973 64.7752 126.557Z" fill="#C95F50"/>
<path d="M111.096 111.576C112.241 113.317 107.709 115.767 107.709 115.767C108.606 115.772 109.474 116.093 110.159 116.673C111.319 117.746 110.159 120.041 110.159 120.041C111.089 120.24 111.937 120.715 112.593 121.403C113.598 122.543 112.739 125.029 112.739 125.029C113.479 125.694 113.967 126.594 114.122 127.578C114.64 131.981 105.036 138.275 101.917 139.492L89.3137 128.096C89.3137 128.096 93.9759 117.642 97.7989 114.943C99.8968 113.446 109.351 108.913 111.096 111.576Z" fill="#C95F50"/>
<path d="M107.641 115.741C104.932 116.559 102.42 118.025 100.011 119.466C99.959 119.497 100.011 119.579 100.063 119.548C102.44 118.088 105.269 117.228 107.698 115.865C107.766 115.829 107.714 115.72 107.641 115.741Z" fill="#263238"/>
<path d="M109.967 119.901C109.367 120.146 108.803 120.47 108.289 120.864C107.719 121.242 107.159 121.631 106.605 122.03C105.491 122.827 104.393 123.651 103.326 124.511C103.274 124.547 103.326 124.63 103.373 124.594C104.486 123.796 105.611 123.04 106.75 122.273C107.325 121.9 107.9 121.532 108.48 121.17C109.047 120.858 109.578 120.486 110.066 120.061C110.128 119.994 110.055 119.87 109.967 119.901Z" fill="#263238"/>
<path d="M112.676 125.06C112.139 125.289 111.645 125.608 111.216 126.003L109.708 127.117C108.703 127.852 107.693 128.593 106.662 129.292C106.651 129.299 106.643 129.31 106.64 129.323C106.638 129.335 106.64 129.349 106.647 129.36C106.654 129.371 106.664 129.378 106.677 129.381C106.69 129.384 106.703 129.382 106.714 129.375C107.75 128.671 108.827 127.977 109.874 127.257C110.392 126.904 110.91 126.552 111.428 126.22C111.924 125.938 112.366 125.57 112.733 125.133C112.743 125.125 112.749 125.114 112.751 125.102C112.752 125.09 112.749 125.078 112.741 125.068C112.734 125.058 112.723 125.052 112.71 125.051C112.698 125.049 112.686 125.053 112.676 125.06Z" fill="#263238"/>
<path d="M113.593 126.138C114.063 126.817 114.275 127.642 114.189 128.464C114.082 129.286 113.766 130.067 113.272 130.732C112.342 132.062 111.261 133.279 110.05 134.359C108.852 135.449 107.571 136.443 106.217 137.332C104.864 138.221 103.433 138.985 101.943 139.616H101.979C101.03 140.397 100.073 141.165 99.1094 141.922C99.9901 141.065 100.881 140.223 101.782 139.394C103.221 138.69 104.607 137.882 105.927 136.975C107.243 136.075 108.501 135.092 109.693 134.032C110.888 132.983 111.982 131.825 112.961 130.572C113.45 129.969 113.789 129.259 113.951 128.5C114.113 127.695 113.986 126.858 113.593 126.138Z" fill="#263238"/>
<path d="M66.3965 139.653L79.0724 133.131C79.0724 133.131 74.3377 124.382 70.0796 120.129C65.8215 115.876 63.8634 118.906 64.1949 124.744C64.5265 130.582 66.3965 139.653 66.3965 139.653Z" fill="#C7C7C7"/>
<path d="M76.8139 130.675C74.7678 131.515 69.2923 133.955 65.9355 136.027C65.9355 136.027 65.9355 136.125 65.977 136.115C69.0229 134.835 74.8973 131.825 76.8554 130.805C76.9072 130.784 76.8502 130.66 76.8139 130.675Z" fill="#263238"/>
<path d="M206.629 198.142C206.111 199.52 181.065 230.663 179.356 231.249C178.713 231.472 173.963 228.089 168.343 223.836C167.131 222.919 165.882 221.961 164.618 220.982C156.418 214.646 147.865 207.726 147.865 207.726L164.561 186.844L180.858 200.67L184.438 203.701C184.438 203.701 199.362 196.07 201.299 195.63C203.236 195.19 207.137 196.759 206.629 198.142Z" fill="#C95F50"/>
<path d="M206.629 198.142C206.111 199.52 181.065 230.663 179.356 231.249C178.568 231.518 171.725 226.468 164.618 220.982L180.858 200.681L184.438 203.711C184.438 203.711 199.362 196.081 201.299 195.64C203.236 195.2 207.137 196.759 206.629 198.142Z" fill="white"/>
<path d="M206.629 198.142C206.111 199.52 181.065 230.663 179.356 231.249C178.713 231.472 173.963 228.089 168.343 223.836L184.438 203.711C184.438 203.711 199.362 196.081 201.299 195.64C203.236 195.2 207.137 196.759 206.629 198.142Z" fill="#92E3A9"/>
<path d="M205.024 197.583C200.693 202.701 183.723 223.748 179.832 229.135C179.801 229.182 179.832 229.203 179.869 229.161C184.267 224.183 201.066 203.001 205.106 197.655C205.195 197.541 205.117 197.479 205.024 197.583Z" fill="#263238"/>
<path d="M198.548 196.738C198.067 197.306 197.709 197.968 197.496 198.681C197.283 199.394 197.22 200.144 197.31 200.883C197.465 202.214 198.128 203.435 199.16 204.291C199.191 204.317 199.237 204.26 199.211 204.229C198.319 203.22 197.779 201.949 197.671 200.606C197.564 199.264 197.895 197.923 198.616 196.785C198.62 196.776 198.621 196.766 198.619 196.756C198.616 196.747 198.61 196.738 198.602 196.733C198.594 196.727 198.584 196.725 198.574 196.726C198.564 196.727 198.555 196.731 198.548 196.738Z" fill="#263238"/>
<path d="M186.587 202.105C184.873 204.177 183.666 207.187 184.329 209.875C184.355 209.979 184.5 209.938 184.52 209.849C185.031 207.253 185.82 204.719 186.872 202.292C186.897 202.254 186.906 202.208 186.896 202.164C186.887 202.119 186.861 202.081 186.823 202.056C186.785 202.031 186.739 202.022 186.695 202.032C186.651 202.041 186.612 202.067 186.587 202.105Z" fill="#263238"/>
<path d="M188.509 200.991C186.8 203.063 185.593 206.073 186.256 208.762C186.282 208.865 186.427 208.829 186.447 208.762C186.958 206.164 187.747 203.628 188.799 201.199C188.827 201.16 188.838 201.112 188.83 201.066C188.822 201.019 188.796 200.977 188.758 200.95C188.719 200.922 188.672 200.911 188.625 200.919C188.578 200.927 188.537 200.953 188.509 200.991Z" fill="#263238"/>
<path d="M190.436 199.888C188.727 201.96 187.515 204.97 188.183 207.658C188.209 207.762 188.354 207.726 188.369 207.658C188.884 205.061 189.674 202.525 190.726 200.095C190.754 200.057 190.765 200.009 190.757 199.962C190.749 199.916 190.723 199.874 190.685 199.847C190.646 199.819 190.599 199.808 190.552 199.816C190.505 199.824 190.464 199.85 190.436 199.888Z" fill="#263238"/>
<path d="M192.363 198.785C190.654 200.857 189.442 203.866 190.11 206.555C190.11 206.658 190.281 206.617 190.296 206.555C190.809 203.959 191.597 201.425 192.648 198.997C192.676 198.959 192.688 198.912 192.682 198.865C192.675 198.819 192.65 198.777 192.612 198.748C192.574 198.72 192.527 198.708 192.48 198.715C192.433 198.722 192.391 198.747 192.363 198.785Z" fill="#263238"/>
<path d="M175.947 223.82C174.067 226.167 177.714 229.094 179.599 226.737C181.485 224.38 177.828 221.463 175.947 223.82Z" fill="white"/>
<path d="M182.827 195.36C181.096 195.713 180.884 197.733 181.272 199.121C181.977 201.493 183.294 203.637 185.09 205.338C185.097 205.346 185.106 205.353 185.116 205.358C185.125 205.363 185.136 205.365 185.147 205.365C185.158 205.365 185.169 205.363 185.179 205.358C185.189 205.353 185.197 205.346 185.204 205.338C185.251 205.36 185.301 205.371 185.353 205.371C185.404 205.37 185.455 205.357 185.501 205.334C185.547 205.31 185.586 205.276 185.616 205.235C185.647 205.193 185.667 205.145 185.676 205.094C185.841 202.779 186.308 200.323 185.758 198.028C185.437 196.65 184.458 195.029 182.827 195.36ZM185.204 201.509C185.147 202.654 185.038 203.783 185.028 204.928C184.25 203.743 183.532 202.519 182.878 201.261C182.571 200.645 182.304 200.01 182.081 199.36C181.759 198.349 181.661 194.894 184.101 196.516C185.448 197.396 185.272 200.137 185.204 201.509Z" fill="#263238"/>
<path d="M181.682 211.129C183.427 209.533 184.417 207.244 185.577 205.234C185.6 205.187 185.611 205.136 185.61 205.084C185.609 205.032 185.595 204.981 185.57 204.936C185.545 204.89 185.51 204.851 185.467 204.822C185.424 204.793 185.375 204.774 185.323 204.768C185.324 204.757 185.323 204.746 185.319 204.736C185.315 204.725 185.309 204.716 185.301 204.709C185.293 204.701 185.283 204.696 185.273 204.693C185.262 204.689 185.251 204.688 185.24 204.69C182.805 205.089 180.517 206.119 178.605 207.679C177.506 208.606 176.533 210.404 177.781 211.663C179.029 212.921 180.666 212.061 181.682 211.129ZM179.48 211.435C176.548 211.409 178.568 208.601 179.402 207.948C179.951 207.535 180.528 207.159 181.127 206.824C182.375 206.15 183.656 205.54 184.966 204.996C184.334 205.949 183.79 206.943 183.194 207.922C182.49 209.083 181.096 211.45 179.48 211.435Z" fill="#263238"/>
<path d="M179.988 197.526L162.608 220.971L103.968 180.271L98.3169 176.344C98.3169 176.344 96.7162 177.422 94.3022 178.753C90.9558 180.602 86.0502 182.949 81.7092 183.586C74.4569 184.663 62.2783 184.549 56.1398 176.334C50.9596 169.423 53.7776 160.41 53.7776 160.41L61.7913 157.006C61.7913 157.006 80.7094 141.243 92.9605 140.772C98.1666 140.564 105.745 144.507 112.759 148.63C119.773 152.753 179.988 197.526 179.988 197.526Z" fill="#37474F"/>
<path d="M98.3168 176.36C98.3168 176.36 96.7162 177.437 94.3022 178.768C90.0441 173.671 81.0254 164.404 80.7508 164.077L98.3168 176.36Z" fill="#263238"/>
<path d="M68.7017 151.728C67.5725 152.515 66.4794 153.349 65.3657 154.152C64.252 154.955 63.133 155.706 62.0918 156.556C61.0506 157.405 60.0197 158.379 59.0251 159.327C58.5434 159.783 58.0668 160.244 57.6006 160.721C57.1081 161.176 56.6526 161.67 56.2382 162.197C56.2019 162.249 56.2745 162.306 56.3211 162.275C56.8523 161.896 57.3592 161.484 57.8389 161.042L59.3929 159.7C60.429 158.835 61.465 157.996 62.4648 157.11C63.4646 156.224 64.4022 155.307 65.402 154.437C66.4017 153.567 67.5984 152.634 68.7069 151.748L68.7017 151.728Z" fill="#263238"/>
<path d="M175.906 196.687C174.776 197.904 173.735 199.215 172.684 200.499C171.632 201.784 170.575 203.089 169.534 204.384C167.462 206.974 165.348 209.565 163.318 212.212C162.194 213.657 161.08 215.113 160.034 216.62C159.987 216.687 160.096 216.76 160.148 216.703C162.391 214.237 164.442 211.606 166.519 209.005C168.596 206.405 170.663 203.789 172.735 201.152C173.854 199.707 175.004 198.272 176.035 196.764C176.051 196.702 175.952 196.635 175.906 196.687Z" fill="#263238"/>
<path d="M127.782 196.925C124.865 194.625 121.84 192.454 118.815 190.299C115.79 188.144 112.795 186.005 109.744 183.923C108.864 183.322 107.978 182.736 107.097 182.151C106.217 181.566 105.295 181.022 104.435 180.416C104.383 180.379 104.336 180.462 104.388 180.499C105.181 181.068 105.942 181.706 106.709 182.296C107.475 182.887 108.19 183.431 108.941 183.985C110.407 185.067 111.889 186.135 113.365 187.202C116.359 189.367 119.38 191.5 122.425 193.599C124.161 194.785 125.881 195.977 127.652 197.106C127.756 197.174 127.88 197.003 127.782 196.925Z" fill="#263238"/>
<path d="M146.534 172.733C143.84 170.501 140.95 168.491 138.121 166.424C135.293 164.357 132.423 162.228 129.553 160.151L121.011 153.981C118.25 151.982 115.505 149.956 112.588 148.19C110.993 147.226 109.361 146.33 107.677 145.522C106.046 144.69 104.348 143.997 102.601 143.45C102.589 143.445 102.576 143.445 102.564 143.45C102.553 143.455 102.544 143.464 102.539 143.476C102.534 143.487 102.534 143.5 102.539 143.512C102.544 143.524 102.553 143.533 102.565 143.538C104.005 144.341 105.512 145.019 106.963 145.791C108.413 146.563 109.817 147.345 111.21 148.205C114.106 149.961 116.836 151.956 119.582 153.929C125.28 158.027 130.978 162.145 136.712 166.186C139.924 168.449 143.069 170.848 146.405 172.92C146.508 172.977 146.632 172.816 146.534 172.733Z" fill="#263238"/>
<path d="M211.022 144.47C204.692 153.044 198.072 162.995 196.481 173.744C196.481 173.909 196.725 173.961 196.761 173.801C197.498 170.868 198.441 167.991 199.584 165.191C203.729 164.046 207.831 163.119 210.017 158.975C212.245 154.727 211.96 149.189 211.54 144.564C211.499 144.315 211.152 144.305 211.022 144.47Z" fill="#92E3A9"/>
<path d="M199.626 165.108C202.47 158.726 206.122 152.318 210.763 147.071C210.794 147.034 210.841 147.071 210.81 147.123C207.774 150.857 205.464 154.929 203.211 159.073C205.309 156.944 207.603 155.038 209.587 152.779C209.629 152.738 209.691 152.779 209.655 152.847C207.681 155.209 205.511 157.783 202.957 159.534C202.266 160.802 201.575 162.074 200.885 163.352L201.403 163.083C201.434 163.083 201.46 163.114 201.429 163.129C201.237 163.228 201.04 163.331 200.838 163.419C200.506 164.02 200.175 164.626 199.833 165.227C199.75 165.362 199.584 165.248 199.626 165.108Z" fill="#263238"/>
<path d="M201.739 162.881C203.443 161.932 205.068 160.847 206.598 159.638C206.64 159.607 206.702 159.664 206.661 159.7C205.175 160.982 203.548 162.09 201.812 163.005C201.729 163.041 201.656 162.927 201.739 162.881Z" fill="#263238"/>
<path d="M195.751 172.148C195.751 172.278 195.984 172.272 195.984 172.148C196.015 168.605 195.984 165.046 196.036 161.492C196.948 159.659 198.89 158.648 200.247 157.182C201.219 156.109 202.065 154.929 202.77 153.665C204.404 150.643 205.402 147.318 205.702 143.895C206.075 140.109 204.64 127.609 203.04 128.044C202.216 128.272 199.533 134.462 198.823 136.508C197.67 139.878 196.828 143.346 196.305 146.869C195.01 155.204 195.119 163.761 195.751 172.148Z" fill="#92E3A9"/>
<path d="M195.725 156.872C195.922 152.391 196.927 147.868 197.875 143.522C198.911 138.86 200.082 134.436 202.491 130.261C202.499 130.245 202.514 130.234 202.532 130.229C202.549 130.224 202.568 130.226 202.584 130.235C202.6 130.244 202.611 130.259 202.616 130.276C202.621 130.294 202.619 130.313 202.61 130.328C201.004 133.575 199.76 136.989 198.901 140.507C199.061 140.259 199.258 140.021 199.419 139.782C199.481 139.684 199.636 139.782 199.574 139.87C199.357 140.24 199.104 140.587 198.818 140.906C198.818 140.906 198.818 140.906 198.787 140.906C197.958 144.253 197.362 147.677 196.854 151.091C196.89 151.043 196.928 150.998 196.968 150.956C196.994 150.956 197.036 150.956 197.02 150.997C196.958 151.111 196.886 151.225 196.818 151.334C196.559 153.069 196.3 154.8 196.083 156.514C199.191 153.878 201.781 150.769 203.288 146.936C203.288 146.936 203.325 146.936 203.319 146.936C201.864 150.909 199.569 154.437 196.036 156.851C195.969 157.312 195.906 157.773 195.839 158.234C195.839 158.327 195.673 158.301 195.673 158.234C195.673 157.825 195.673 157.416 195.71 157.006C195.694 156.986 195.688 156.961 195.691 156.936C195.693 156.911 195.706 156.888 195.725 156.872Z" fill="#263238"/>
<path d="M197.181 150.381C199.538 146.864 201.739 143.445 203.464 139.554C203.468 139.544 203.477 139.536 203.487 139.531C203.497 139.527 203.508 139.527 203.519 139.531C203.529 139.535 203.537 139.543 203.542 139.553C203.546 139.564 203.546 139.575 203.542 139.585C202.086 143.45 200.051 147.356 197.295 150.464C197.243 150.536 197.129 150.453 197.181 150.381Z" fill="#263238"/>
<path d="M200.315 138.684C201.289 136.954 202.32 135.275 203.236 133.504C203.262 133.452 203.33 133.504 203.309 133.545C202.556 135.384 201.602 137.133 200.465 138.762C200.398 138.86 200.258 138.782 200.315 138.684Z" fill="#263238"/>
<path d="M193.368 161.907C193.317 164.251 193.036 166.585 192.529 168.874L192.638 169.636C193.357 167.103 193.776 164.495 193.886 161.865C193.907 161.829 193.917 161.788 193.917 161.746C193.917 161.705 193.907 161.663 193.886 161.627C193.986 158.097 193.723 154.567 193.104 151.091C192.006 144.584 189.613 138.337 185.07 133.478C185.032 133.442 184.987 133.415 184.937 133.401C184.887 133.386 184.834 133.384 184.783 133.394C184.732 133.404 184.685 133.427 184.644 133.459C184.604 133.492 184.572 133.534 184.551 133.582C182.718 138.244 183.36 143.792 184.919 148.438C185.766 150.953 186.978 153.33 188.514 155.494C190.105 157.664 192.089 159.514 193.368 161.907Z" fill="#92E3A9"/>
<path d="M185.598 135.633C189.897 142.616 192.892 150.894 193.259 159.141C193.259 159.286 193.021 159.322 193 159.172C192.897 158.431 192.783 157.701 192.664 156.965C190.882 155.261 189.038 153.463 187.784 151.334C187.758 151.293 187.815 151.251 187.841 151.282C189.317 153.103 190.901 154.833 192.586 156.462C192.275 154.644 191.913 152.836 191.477 151.08L191.141 150.681C191.063 150.593 191.187 150.464 191.265 150.552L191.369 150.666C190.771 148.231 190.025 145.835 189.136 143.491C188.043 142.186 186.815 141.057 186.028 139.482C186.028 139.446 186.064 139.414 186.085 139.451C186.727 140.347 187.349 141.253 188.074 142.087C188.364 142.424 188.685 142.735 188.986 143.056C187.995 140.526 186.817 138.072 185.463 135.716C185.465 135.7 185.469 135.686 185.477 135.673C185.486 135.659 185.497 135.648 185.51 135.64C185.523 135.632 185.538 135.627 185.553 135.626C185.568 135.625 185.584 135.627 185.598 135.633Z" fill="#263238"/>
<path d="M186.489 144.248C187.877 146.118 189.462 147.905 190.757 149.837C190.794 149.894 190.711 149.951 190.664 149.904C189.006 148.35 187.597 146.221 186.396 144.299C186.359 144.242 186.447 144.191 186.489 144.248Z" fill="#263238"/>
<path d="M190.949 150.272L191.012 150.329C191.054 150.371 190.986 150.434 190.944 150.392L190.887 150.335C190.879 150.326 190.874 150.315 190.874 150.303C190.874 150.292 190.879 150.28 190.887 150.272C190.895 150.264 190.906 150.259 190.918 150.259C190.93 150.259 190.941 150.264 190.949 150.272Z" fill="#263238"/>
<path d="M178.864 149.055C179.374 152.953 180.943 156.637 183.401 159.705C184.416 160.908 185.671 161.885 187.085 162.575C188.68 163.362 190.348 164.274 191.995 164.922C192.78 166.917 193.363 168.985 193.736 171.096C193.788 170.92 193.84 170.729 193.897 170.553C192.835 161.456 186.95 153.686 179.428 148.697C179.369 148.659 179.301 148.639 179.23 148.638C179.16 148.638 179.091 148.658 179.031 148.695C178.972 148.733 178.925 148.787 178.895 148.85C178.865 148.914 178.854 148.985 178.864 149.055Z" fill="#92E3A9"/>
<path d="M181.48 151.743C181.428 151.697 181.48 151.598 181.557 151.64C185.693 154.715 188.99 158.78 191.146 163.461C191.203 163.585 191.032 163.694 190.959 163.57C190.612 162.958 190.255 162.363 189.892 161.777C188.172 161.451 186.546 160.223 185.272 159.094C185.235 159.063 185.272 159.016 185.323 159.047C185.98 159.644 186.709 160.156 187.494 160.57C188.198 160.928 188.949 161.151 189.68 161.435C189.043 160.425 188.38 159.457 187.685 158.519C185.824 157.813 184.078 156.833 182.505 155.613C182.494 155.606 182.486 155.595 182.484 155.582C182.481 155.57 182.483 155.557 182.49 155.546C182.497 155.535 182.508 155.527 182.52 155.524C182.533 155.521 182.546 155.523 182.557 155.53C184.109 156.47 185.71 157.326 187.354 158.094C186.305 156.712 185.173 155.394 183.966 154.147C183.381 153.836 182.79 153.53 182.226 153.199C182.214 153.194 182.205 153.185 182.2 153.173C182.195 153.162 182.195 153.148 182.2 153.137C182.204 153.125 182.214 153.116 182.225 153.111C182.237 153.106 182.25 153.106 182.262 153.111C182.732 153.276 183.181 153.497 183.598 153.769C182.93 153.08 182.231 152.401 181.48 151.743Z" fill="#263238"/>
<path d="M181.64 154.888C181.743 154.947 181.841 155.017 181.93 155.095C181.956 155.095 181.93 155.152 181.894 155.141C181.791 155.091 181.69 155.034 181.594 154.971C181.542 154.929 181.588 154.846 181.64 154.888Z" fill="#263238"/>
<path d="M205.656 190.786H185.033L186.696 172.008L187.064 167.864H203.625L203.993 172.008L205.656 190.786Z" fill="#455A64"/>
<path d="M203.993 172.008H186.696L187.064 167.864H203.625L203.993 172.008Z" fill="#263238"/>
<path d="M204.609 164.968H186.074V169.066H204.609V164.968Z" fill="#455A64"/>
</svg>
