<svg width="110" height="110" viewBox="0 0 110 110" fill="none" xmlns="http://www.w3.org/2000/svg">
<path d="M14.85 95.326L20.526 74.624C17.028 68.552 15.18 61.688 15.18 54.626C15.18 32.582 33.132 14.652 55.154 14.652C65.846 14.652 75.878 18.81 83.446 26.378C90.992 33.924 95.15 43.978 95.15 54.648C95.15 76.692 77.198 94.622 55.176 94.622H55.154C48.466 94.622 41.888 92.95 36.058 89.76L14.85 95.326ZM37.026 82.544L38.236 83.27C43.34 86.306 49.192 87.89 55.154 87.912H55.176C73.502 87.912 88.396 73.018 88.396 54.692C88.396 45.804 84.942 37.466 78.672 31.196C72.402 24.926 64.064 21.45 55.176 21.45C36.85 21.45 21.934 36.344 21.934 54.67C21.934 60.94 23.694 67.056 27.016 72.358L27.808 73.612L24.442 85.866L37.026 82.544Z" fill="#006241"/>
<path d="M16.236 93.94L21.714 73.942C18.326 68.09 16.566 61.446 16.566 54.648C16.566 33.374 33.88 16.06 55.154 16.06C65.472 16.06 75.174 20.086 82.456 27.368C89.738 34.672 93.764 44.352 93.742 54.67C93.742 75.944 76.428 93.258 55.154 93.258H55.132C48.664 93.258 42.328 91.63 36.696 88.572L16.236 93.94Z" fill="#92E3A9"/>
<path d="M14.85 95.326L20.526 74.624C17.028 68.552 15.18 61.688 15.18 54.626C15.18 32.582 33.132 14.652 55.154 14.652C65.846 14.652 75.878 18.81 83.446 26.378C90.992 33.924 95.15 43.978 95.15 54.648C95.15 76.692 77.198 94.622 55.176 94.622H55.154C48.466 94.622 41.888 92.95 36.058 89.76L14.85 95.326ZM37.026 82.544L38.236 83.27C43.34 86.306 49.192 87.89 55.154 87.912H55.176C73.502 87.912 88.396 73.018 88.396 54.692C88.396 45.804 84.942 37.466 78.672 31.196C72.402 24.926 64.064 21.45 55.176 21.45C36.85 21.45 21.934 36.344 21.934 54.67C21.934 60.94 23.694 67.056 27.016 72.358L27.808 73.612L24.442 85.866L37.026 82.544Z" fill="url(#paint0_linear_21_2)"/>
<path d="M45.166 37.928C44.418 36.256 43.626 36.234 42.922 36.212C42.35 36.19 41.668 36.19 41.008 36.19C40.348 36.19 39.27 36.432 38.346 37.444C37.422 38.434 34.848 40.854 34.848 45.782C34.848 50.688 38.434 55.44 38.918 56.122C39.424 56.782 45.826 67.188 55.99 71.192C64.438 74.514 66.154 73.854 67.98 73.7C69.806 73.524 73.898 71.28 74.734 68.948C75.57 66.616 75.57 64.614 75.306 64.196C75.064 63.778 74.382 63.536 73.392 63.03C72.402 62.524 67.474 60.104 66.572 59.774C65.648 59.444 64.988 59.268 64.328 60.28C63.668 61.27 61.754 63.536 61.16 64.196C60.588 64.856 59.994 64.944 59.004 64.438C58.014 63.932 54.78 62.876 50.974 59.488C48.004 56.848 46.002 53.57 45.408 52.58C44.836 51.59 45.342 51.04 45.848 50.534C46.288 50.094 46.838 49.368 47.344 48.774C47.85 48.18 48.004 47.784 48.334 47.102C48.664 46.442 48.51 45.848 48.246 45.342C48.004 44.836 46.068 39.908 45.166 37.928Z" fill="#F6EFD2"/>
<defs>
<linearGradient id="paint0_linear_21_2" x1="55" y1="95.326" x2="55" y2="15" gradientUnits="userSpaceOnUse">
<stop stop-color="#00422C"/>
<stop offset="1" stop-color="#006241"/>
</linearGradient>
</defs>
</svg>
