<svg width="108" height="85" viewBox="0 0 108 85" fill="none" xmlns="http://www.w3.org/2000/svg">
<path d="M29.133 17.8969C-7.22644 35.5161 19.2395 48.7829 22.3512 55.1513C25.4629 61.5197 18.9536 90.1244 55.5617 72.436C93.5927 54.0838 94.4862 12.0373 94.4862 12.0373C94.4862 12.0373 41.6211 11.7427 29.133 17.8969Z" fill="#2FEF66"/>
<path d="M30.722 49.6069L38.016 45.9697L32.9756 21.1146L39.4389 45.3059L52.0373 38.5852L48.9885 17.9987L53.2115 37.9905L64.0692 31.7541L68.5953 18.1697L65.7408 31.0211L94.4863 12.0373L66.3354 32.1953L81.6606 36.2371L64.6638 32.9283L53.8754 39.4134L70.0481 54.2046L52.7704 40.2567L40.3103 47.4748L55.2418 67.4343L39.1361 48.0695L31.9114 51.9553L34.9862 68.7834L30.7372 52.55L11.5908 62.7002L9.87605 59.4263L29.4786 49.9529L19.3586 36.6927L30.722 49.6069Z" fill="#006241"/>
</svg>
