<svg width="61" height="56" viewBox="0 0 61 56" fill="none" xmlns="http://www.w3.org/2000/svg">
<g clip-path="url(#clip0_5_24)">
<path d="M34.9965 34.2869L33.8808 30.2464L29.4185 30.5623L28.5842 33.1092C29.4343 32.7164 31.0235 32.6995 32.3974 35.1459C35.2041 40.2987 28.6051 47.6784 28.6051 47.6784C28.6051 47.6784 30.2925 47.3738 32.0607 46.345C33.8289 45.3162 35.0685 42.5358 36.4099 39.4449C37.7513 36.3541 34.9965 34.2869 34.9965 34.2869ZM39.3033 26.1324C42.1802 25.1614 46.1171 24.6277 46.1171 24.6277C46.1171 24.6277 47.6242 24.2438 49.5114 23.2607C51.3985 22.2777 51.8536 18.9429 51.8536 18.9429L45.3578 21.9654L31.9788 26.6609C33.5748 27.5487 36.4263 27.1033 39.3033 26.1324ZM35.7642 22.9744L44.2025 11.2551C43.5764 10.4797 41.123 11.5822 41.123 11.5822L36.7916 16.6951C39.3248 15.7571 35.7642 22.9744 35.7642 22.9744Z" fill="#7FFFD4"/>
<path d="M22.9028 27.638C23.5223 30.6863 17.8028 33.9277 17.8028 33.9277C19.0482 34.1906 24.1438 32.0156 25.4095 31.1162C26.6752 30.2169 31.2016 30.1985 31.2016 30.1985C29.1238 28.5839 31.9786 26.6616 31.1472 26.7459C30.3157 26.8303 26.3576 25.1988 26.3576 25.1988C20.4702 20.8261 18.2823 23.0186 18.2823 23.0186C20.8622 23.7725 22.2838 24.5906 22.9028 27.638Z" fill="#7FFFD4"/>
<path d="M24.1514 44.5853C24.0599 44.1576 24.071 43.6585 23.5199 43.5151C23.007 43.3817 22.4936 43.7861 22.5531 44.2778C22.604 44.703 22.6385 45.2302 23.1507 45.3944C23.6997 45.5712 24.2644 45.113 24.1514 44.5853C24.2339 44.9694 24.1193 44.434 24.1514 44.5853ZM24.0993 42.3436C24.1565 41.8971 24.3236 41.387 23.8065 41.1102C23.3549 40.8689 22.7589 41.1258 22.6705 41.6047C22.5929 42.0238 22.4487 42.5214 22.8785 42.8242C23.341 43.1502 24.0304 42.8785 24.0993 42.3436C24.1205 42.1789 24.049 42.733 24.0993 42.3436ZM26.3646 44.5709C26.4223 44.6176 26.482 44.6621 26.5435 44.7044L26.5746 44.7279L26.7033 44.8175C28.8526 46.1617 31.554 44.4788 32.8283 42.8365C34.1031 41.1951 35.0838 38.1512 33.0561 36.6256L32.8678 36.4808C32.7975 36.4426 32.7324 36.3976 32.6729 36.3475C32.4239 36.1957 32.151 36.0812 31.8599 36.0055C29.6154 35.4221 27.3985 37.1036 26.2847 38.7515C25.173 40.3949 24.4836 43.1409 26.3646 44.5709C24.89 43.45 26.3702 44.576 26.3646 44.5709ZM27.4953 43.5922L27.4653 43.5704C27.4407 43.5544 27.4171 43.5379 27.3941 43.5194C26.0693 42.3764 27.1894 40.0719 28.0894 39.0362C28.8701 38.1374 30.6278 36.8096 31.9337 37.6057C31.9615 37.6249 31.9885 37.6449 32.0148 37.6659C33.2776 38.7485 32.2888 40.9419 31.4718 41.9713C30.7055 42.9357 28.8881 44.4028 27.4953 43.5922C27.6075 43.6575 27.4847 43.585 27.4953 43.5922ZM43.2563 25.4849C43.067 25.4355 42.8645 25.4556 42.6909 25.5412L42.2486 25.7578C41.3736 26.1854 42.1051 27.4349 42.9754 27.0068L43.4085 26.7945C44.0052 26.5009 43.9076 25.6544 43.2563 25.4849ZM46.7041 23.7493C46.1286 23.5996 45.3787 24.1946 44.9054 24.4348C44.3203 24.7321 44.4158 25.5641 45.057 25.7383C45.635 25.8953 46.3881 25.3004 46.869 25.0534C47.4537 24.7522 47.3495 23.9173 46.7041 23.7493Z" fill="#01627C"/>
<path d="M10.0022 32.4706C11.6867 35.5874 16.6968 35.2843 19.7031 34.4613C21.3203 34.0183 22.6362 33.247 24.0719 32.4686C24.7338 32.1094 25.4124 31.7501 26.1315 31.4987C26.7875 31.2692 27.5187 31.2877 28.2091 31.2256C28.0437 31.8931 27.9547 32.5761 27.5883 33.1802C27.1817 33.8513 26.6709 34.4702 26.1606 35.0744C25.6877 35.6339 25.1532 36.1633 24.7365 36.7603C24.3198 37.3572 23.0203 38.9487 23.6022 39.6551C24.4908 40.7347 25.1939 38.8812 25.4792 38.3849C25.9683 37.5356 26.6045 36.841 27.2465 36.0904C27.9198 35.3023 28.6048 34.4884 29.0856 33.5824C29.497 32.8086 29.6095 31.9011 29.8188 31.0674C30.9113 30.9565 32.0008 30.8222 33.0866 30.6647C33.2387 32.5337 33.9318 33.9914 35.0014 35.5368C35.9403 36.8941 35.8018 38.7044 35.3486 40.1889C34.7789 42.0558 33.6045 43.783 32.0662 45.0949C30.6585 46.2956 28.6308 47.3887 26.6465 47.0537C26.2056 46.9817 25.7857 46.8253 25.4137 46.5943C25.0563 46.3701 24.8429 45.9247 24.4578 45.7633C24.2727 45.6875 24.0629 45.682 23.8735 45.7481C23.6841 45.8142 23.5302 45.9465 23.4448 46.1166C23.2083 46.6012 23.6519 47.0292 23.9968 47.3445C25.5199 48.7359 27.8421 48.7579 29.7392 48.1017C33.5448 46.7857 36.4321 43.1434 37.0887 39.4815C37.4102 37.6916 37.1943 35.663 35.8652 34.2425C35.1316 33.2179 34.7017 31.9017 34.6032 30.4071C35.7769 30.1818 36.8693 29.771 37.9586 29.3152C38.7014 29.0024 39.4379 28.6771 40.1679 28.3393C40.7339 28.079 41.9789 27.7205 41.531 26.9052C41.0815 26.0895 40.0368 26.8156 39.4699 27.0764C38.7464 27.4116 38.0161 27.7339 37.2793 28.0431C36.1479 28.5145 35.0344 28.8977 33.8106 29.1048C34.1167 28.4267 34.0039 27.5991 33.5049 27.0234C35.6369 26.8542 37.7148 26.3112 39.6284 25.4231L51.1724 20.054C51.0451 20.5037 50.7515 20.9012 50.4169 21.2402C50.1531 21.5077 49.8563 21.7451 49.5449 21.9626C49.0897 22.2798 48.462 22.4916 48.0593 22.8534C47.9155 22.9852 47.8331 23.1641 47.8298 23.3516C47.8266 23.5391 47.9027 23.7204 48.0419 23.8564C48.4004 24.2003 48.8338 24.0551 49.2181 23.8515C50.0963 23.3842 50.9425 22.8283 51.6159 22.1212C52.3217 21.3806 52.8349 20.4306 52.7479 19.4203C52.699 18.8467 52.3614 17.9134 51.5105 18.3089L38.9435 24.1562C37.8357 24.6712 36.6649 25.0602 35.4565 25.3149C35.8835 24.2223 36.4544 23.1828 37.1561 22.2199L45.013 11.4107C45.4695 10.7821 44.7504 10.3193 44.176 10.1713C43.0782 9.88566 40.8518 9.93577 38.2922 13.4511C37.0067 15.0361 35.7507 16.6413 34.5246 18.2663C32.8244 20.5149 30.8922 22.8446 29.8962 25.4585C28.3178 25.1849 26.9209 24.6084 25.9196 23.8068C25.1934 23.0495 24.1987 22.5489 23.1547 22.2773C19.8273 21.4114 16.0793 22.55 13.3929 24.4174C10.8668 26.1725 8.37932 29.481 10.0022 32.4706C9.20191 30.9967 10.5732 33.528 10.0022 32.4706ZM32.2235 28.781C31.6499 29.245 30.7698 28.5523 31.2087 27.9531C31.7649 27.1919 32.9754 28.1718 32.2235 28.781ZM39.5372 14.2748C41.0817 12.1545 42.3378 11.6072 43.0947 11.5093L35.8867 21.4267C34.9565 22.702 34.2367 24.0989 33.7511 25.5713C32.989 25.6545 32.2204 25.6755 31.4542 25.634C32.4477 23.1676 34.3697 20.9347 35.9904 18.8017C37.1516 17.2786 38.3339 15.7695 39.5372 14.2748C39.4509 14.3813 41.082 12.1538 39.5372 14.2748ZM11.7788 28.136C13.4797 25.365 17.125 23.5466 20.5148 23.4234C22.2363 23.3606 23.5942 23.798 24.8723 24.8433C26.3303 26.0298 28.2263 26.6853 30.1296 26.933C29.8047 27.2746 29.6099 27.7057 29.5753 28.1601C29.5406 28.6144 29.668 29.0667 29.9379 29.4473C29.795 29.5288 29.6482 29.6039 29.4977 29.6726L29.3727 29.6865L29.1076 29.7141C28.2423 29.7999 27.3574 29.8247 26.4966 29.9427C25.5411 30.0744 24.6312 30.5467 23.8008 30.977C21.9033 31.9603 20.2629 32.9736 18.0863 33.3743C16.3145 33.7004 14.2003 33.7738 12.5696 32.9323C10.6102 31.9219 10.8034 29.7256 11.7788 28.136C10.9522 29.4835 12.6631 26.6952 11.7788 28.136Z" fill="#006241"/>
<path d="M13.4779 30.9449L13.517 31.0074L13.5278 31.0242C13.5458 31.054 13.5599 31.0731 13.5765 31.0995C13.6091 31.1711 13.654 31.2373 13.7095 31.2956C16.5041 35.0544 25.5084 30.6423 23.2276 26.4017C23.2057 26.3665 23.1833 26.3327 23.1598 26.3C23.113 26.2156 23.0654 26.1524 23.0404 26.1223C21.543 23.8892 17.908 24.5627 15.9137 25.7213C14.1949 26.7208 12.2424 28.9864 13.4779 30.9449ZM17.2534 26.6499C18.5985 26.0263 20.7785 25.6199 21.7976 26.9458L21.8174 26.9856C22.5927 28.4396 20.5518 30.0121 19.3658 30.5644C17.8972 31.2517 15.9341 31.5273 14.8049 30.2392C14.2342 29.1782 15.3563 27.5346 17.2534 26.6499C15.3563 27.5346 18.4147 26.1111 17.2534 26.6499Z" fill="#01627C"/>
</g>
<defs>
<clipPath id="clip0_5_24">
<rect width="48.7257" height="45.6873" fill="white" transform="matrix(-0.96777 -0.251837 0.289629 -0.957139 47.1553 56)"/>
</clipPath>
</defs>
</svg>
