<svg width="111" height="112" viewBox="0 0 111 112" fill="none" xmlns="http://www.w3.org/2000/svg">
<mask id="path-1-inside-1_9_59" fill="white">
<path d="M26.5468 111.298C19.6146 109.017 13.1862 104.656 8.5466 98.9011C3.907 93.1462 1.31254 85.9966 0.769166 78.8382C0.496984 75.1435 0.482173 71.6787 1.23553 67.9796C1.98888 64.2806 2.99961 60.8114 4.52311 57.34C7.5701 50.3973 12.1584 44.1409 18.0335 39.034C18.7997 38.3377 19.5669 37.8725 20.333 37.1762L21.611 36.2468L22.6336 35.5495C24.167 34.388 25.9567 33.2253 27.4911 32.2948C30.8152 30.2017 34.3967 28.3385 38.2365 26.9361C45.9162 24.1314 54.1136 22.4794 62.5743 22.4432C71.0359 22.6381 79.5045 24.4498 87.2129 28.3437C91.0675 30.4061 94.6687 33.1626 97.5038 36.6154C100.339 40.0681 102.409 44.4481 102.685 49.0667C102.961 53.6853 101.441 58.0807 99.1497 61.7863C96.8581 65.492 93.7933 68.2769 90.7275 70.8309C84.3396 75.94 76.4065 79.4388 67.9508 80.6299C63.5942 81.1105 59.2357 81.1292 54.8732 80.2238C50.5107 79.3185 46.1443 77.4893 42.7965 74.0387C39.4496 70.8192 37.6352 66.2071 37.8738 62.0482C37.8561 57.8905 39.1222 54.1892 40.9021 50.7168C44.4628 44.0028 49.5678 38.6682 54.9311 33.7945C60.2945 28.9207 66.1735 24.7378 72.31 20.7847C84.5829 12.8786 97.3744 6.35614 110.938 0.523389C98.6633 7.96756 86.3894 15.6427 75.4014 24.2363C69.7787 28.4182 64.6708 33.0599 59.8202 37.9314C55.226 42.8018 50.8902 48.1332 48.6064 53.6867C47.3364 56.464 46.8354 59.238 46.8463 61.7789C47.1135 64.3187 48.148 66.3931 49.9496 68.0024C53.5528 71.2208 60.2227 72.1163 66.1146 70.9362C72.2629 69.7549 78.1479 66.9579 82.4897 63.0125C87.0868 58.835 89.8863 53.9722 89.1004 50.0487C88.5698 45.8932 84.9637 41.9818 79.8251 39.4628C74.6856 36.7129 68.271 35.5854 62.1168 35.3807C49.2966 35.2045 36.2407 39.8801 26.2743 47.5454C21.4198 51.493 17.081 56.1314 14.0271 61.4572C12.5006 64.2356 11.2306 67.0129 10.4733 69.7881C9.46057 72.7953 8.96063 75.8003 8.71709 78.8042C8.48637 84.8109 9.53857 91.0432 12.3835 96.8058C15.4838 102.336 20.3768 107.397 26.5468 111.298Z"/>
</mask>
<path d="M26.5468 111.298C19.6146 109.017 13.1862 104.656 8.5466 98.9011C3.907 93.1462 1.31254 85.9966 0.769166 78.8382C0.496984 75.1435 0.482173 71.6787 1.23553 67.9796C1.98888 64.2806 2.99961 60.8114 4.52311 57.34C7.5701 50.3973 12.1584 44.1409 18.0335 39.034C18.7997 38.3377 19.5669 37.8725 20.333 37.1762L21.611 36.2468L22.6336 35.5495C24.167 34.388 25.9567 33.2253 27.4911 32.2948C30.8152 30.2017 34.3967 28.3385 38.2365 26.9361C45.9162 24.1314 54.1136 22.4794 62.5743 22.4432C71.0359 22.6381 79.5045 24.4498 87.2129 28.3437C91.0675 30.4061 94.6687 33.1626 97.5038 36.6154C100.339 40.0681 102.409 44.4481 102.685 49.0667C102.961 53.6853 101.441 58.0807 99.1497 61.7863C96.8581 65.492 93.7933 68.2769 90.7275 70.8309C84.3396 75.94 76.4065 79.4388 67.9508 80.6299C63.5942 81.1105 59.2357 81.1292 54.8732 80.2238C50.5107 79.3185 46.1443 77.4893 42.7965 74.0387C39.4496 70.8192 37.6352 66.2071 37.8738 62.0482C37.8561 57.8905 39.1222 54.1892 40.9021 50.7168C44.4628 44.0028 49.5678 38.6682 54.9311 33.7945C60.2945 28.9207 66.1735 24.7378 72.31 20.7847C84.5829 12.8786 97.3744 6.35614 110.938 0.523389C98.6633 7.96756 86.3894 15.6427 75.4014 24.2363C69.7787 28.4182 64.6708 33.0599 59.8202 37.9314C55.226 42.8018 50.8902 48.1332 48.6064 53.6867C47.3364 56.464 46.8354 59.238 46.8463 61.7789C47.1135 64.3187 48.148 66.3931 49.9496 68.0024C53.5528 71.2208 60.2227 72.1163 66.1146 70.9362C72.2629 69.7549 78.1479 66.9579 82.4897 63.0125C87.0868 58.835 89.8863 53.9722 89.1004 50.0487C88.5698 45.8932 84.9637 41.9818 79.8251 39.4628C74.6856 36.7129 68.271 35.5854 62.1168 35.3807C49.2966 35.2045 36.2407 39.8801 26.2743 47.5454C21.4198 51.493 17.081 56.1314 14.0271 61.4572C12.5006 64.2356 11.2306 67.0129 10.4733 69.7881C9.46057 72.7953 8.96063 75.8003 8.71709 78.8042C8.48637 84.8109 9.53857 91.0432 12.3835 96.8058C15.4838 102.336 20.3768 107.397 26.5468 111.298Z" fill="#F6EFD2"/>
<path d="M0.769166 78.8382L-0.228134 78.9116L-0.227965 78.9139L0.769166 78.8382ZM18.0335 39.034L18.6895 39.7887L18.6978 39.7815L18.706 39.7741L18.0335 39.034ZM20.333 37.1762L19.7449 36.3675L19.7008 36.3995L19.6605 36.4361L20.333 37.1762ZM21.611 36.2468L21.0476 35.4206L21.0351 35.4292L21.0228 35.4381L21.611 36.2468ZM22.6336 35.5495L23.197 36.3756L23.2176 36.3616L23.2374 36.3466L22.6336 35.5495ZM27.4911 32.2948L28.0096 33.1499L28.0168 33.1455L28.0239 33.141L27.4911 32.2948ZM62.5743 22.4432L62.5973 21.4435L62.5837 21.4432L62.57 21.4433L62.5743 22.4432ZM87.2129 28.3437L87.6846 27.462L87.6742 27.4564L87.6637 27.4511L87.2129 28.3437ZM90.7275 70.8309L91.3521 71.6119L91.3599 71.6057L91.3676 71.5993L90.7275 70.8309ZM67.9508 80.6299L68.0604 81.6239L68.0754 81.6222L68.0903 81.6201L67.9508 80.6299ZM42.7965 74.0387L43.5142 73.3424L43.5022 73.33L43.4897 73.318L42.7965 74.0387ZM37.8738 62.0482L38.8722 62.1055L38.8739 62.0748L38.8738 62.044L37.8738 62.0482ZM40.9021 50.7168L40.0185 50.2482L40.0122 50.2606L40.9021 50.7168ZM110.938 0.523389L111.457 1.37844L110.543 -0.395271L110.938 0.523389ZM75.4014 24.2363L75.9982 25.0387L76.0079 25.0315L76.0175 25.024L75.4014 24.2363ZM59.8202 37.9314L59.1116 37.2258L59.102 37.2354L59.0928 37.2452L59.8202 37.9314ZM48.6064 53.6867L49.5158 54.1026L49.5239 54.085L49.5313 54.067L48.6064 53.6867ZM46.8463 61.7789L45.8463 61.7832L45.8465 61.8335L45.8518 61.8835L46.8463 61.7789ZM66.1146 70.9362L65.9259 69.9541L65.9182 69.9556L66.1146 70.9362ZM89.1004 50.0487L88.1084 50.1754L88.1129 50.2105L88.1198 50.2452L89.1004 50.0487ZM79.8251 39.4628L79.3533 40.3445L79.369 40.3529L79.3849 40.3607L79.8251 39.4628ZM62.1168 35.3807L62.15 34.3812L62.1403 34.3809L62.1305 34.3808L62.1168 35.3807ZM26.2743 47.5454L25.6647 46.7527L25.6539 46.761L25.6434 46.7696L26.2743 47.5454ZM14.0271 61.4572L13.1596 60.9598L13.1551 60.9677L13.1507 60.9757L14.0271 61.4572ZM10.4733 69.7881L11.421 70.1072L11.4303 70.0795L11.438 70.0513L10.4733 69.7881ZM8.71709 78.8042L7.72036 78.7234L7.71864 78.7446L7.71782 78.7658L8.71709 78.8042ZM12.3835 96.8058L11.4868 97.2485L11.4984 97.272L11.5112 97.2948L12.3835 96.8058ZM26.8593 110.348C20.1052 108.126 13.8404 103.874 9.32511 98.2735L7.76809 99.5288C12.532 105.438 19.124 109.909 26.2344 112.248L26.8593 110.348ZM9.32511 98.2735C4.82372 92.69 2.29575 85.7375 1.7663 78.7625L-0.227965 78.9139C0.329335 86.2557 2.99028 93.6024 7.76809 99.5288L9.32511 98.2735ZM1.76646 78.7647C1.49746 75.1132 1.48798 71.751 2.21541 68.1792L0.255643 67.7801C-0.523632 71.6064 -0.503494 75.1738 -0.228131 78.9116L1.76646 78.7647ZM2.21541 68.1792C2.95786 64.5337 3.94969 61.1349 5.4388 57.7419L3.60741 56.9381C2.04953 60.4878 1.01991 64.0274 0.255643 67.7801L2.21541 68.1792ZM5.4388 57.7419C8.42604 50.9353 12.9253 44.7992 18.6895 39.7887L17.3774 38.2793C11.3914 43.4826 6.71416 49.8592 3.60741 56.9381L5.4388 57.7419ZM18.706 39.7741C19.0511 39.4604 19.3997 39.1956 19.7871 38.9022C20.1664 38.6149 20.5845 38.2989 21.0056 37.9163L19.6605 36.4361C19.3154 36.7498 18.9668 37.0146 18.5795 37.308C18.2001 37.5953 17.782 37.9113 17.361 38.2939L18.706 39.7741ZM20.9212 37.985L22.1992 37.0555L21.0228 35.4381L19.7449 36.3675L20.9212 37.985ZM22.1744 37.073L23.197 36.3756L22.0702 34.7233L21.0476 35.4206L22.1744 37.073ZM23.2374 36.3466C24.7336 35.2132 26.4919 34.0703 28.0096 33.1499L26.9725 31.4398C25.4216 32.3804 23.6003 33.5627 22.0298 34.7523L23.2374 36.3466ZM28.0239 33.141C31.3012 31.0774 34.8191 29.2488 38.5796 27.8754L37.8935 25.9968C33.9743 27.4281 30.3292 29.326 26.9582 31.4486L28.0239 33.141ZM38.5796 27.8754C46.163 25.1059 54.2459 23.4789 62.5786 23.4432L62.57 21.4433C53.9813 21.48 45.6694 23.1569 37.8935 25.9968L38.5796 27.8754ZM62.5513 23.443C70.8875 23.6349 79.2059 25.4193 86.762 29.2363L87.6637 27.4511C79.8031 23.4803 71.1844 21.6412 62.5973 21.4435L62.5513 23.443ZM86.7411 29.2254C90.5005 31.2369 93.9926 33.915 96.7309 37.25L98.2766 35.9808C95.3449 32.4103 91.6345 29.5753 87.6846 27.462L86.7411 29.2254ZM96.7309 37.25C99.4631 40.5774 101.426 44.7624 101.687 49.1264L103.683 49.007C103.392 44.1337 101.215 39.5588 98.2766 35.9808L96.7309 37.25ZM101.687 49.1264C101.947 53.4868 100.514 57.6793 98.2992 61.2603L100 62.3123C102.369 58.482 103.975 53.8839 103.683 49.007L101.687 49.1264ZM98.2992 61.2603C96.097 64.8214 93.1381 67.5212 90.0875 70.0626L91.3676 71.5993C94.4484 69.0327 97.6191 66.1625 100 62.3123L98.2992 61.2603ZM90.1029 70.05C83.8536 75.0483 76.0877 78.4739 67.8113 79.6397L68.0903 81.6201C76.7254 80.4038 84.8257 76.8318 91.3521 71.6119L90.1029 70.05ZM67.8411 79.6359C63.5526 80.1091 59.3054 80.1223 55.0764 79.2447L54.67 81.203C59.166 82.136 63.6359 82.112 68.0604 81.6239L67.8411 79.6359ZM55.0764 79.2447C50.8375 78.365 46.6788 76.6041 43.5142 73.3424L42.0788 74.7351C45.6097 78.3744 50.1839 80.272 54.67 81.203L55.0764 79.2447ZM43.4897 73.318C40.3407 70.2887 38.6513 65.956 38.8722 62.1055L36.8755 61.991C36.6192 66.4582 38.5586 71.3496 42.1032 74.7594L43.4897 73.318ZM38.8738 62.044C38.857 58.1007 40.0554 54.5609 41.792 51.1729L40.0122 50.2606C38.189 53.8176 36.8551 57.6803 36.8738 62.0525L38.8738 62.044ZM41.7855 51.1853C45.2651 44.6243 50.2689 39.3823 55.6036 34.5345L54.2586 33.0544C48.8666 37.9541 43.6605 43.3813 40.0186 50.2482L41.7855 51.1853ZM55.6036 34.5345C60.91 29.7126 66.7385 25.5634 72.8515 21.6254L71.7684 19.944C65.6086 23.9122 59.6789 28.1289 54.2586 33.0544L55.6036 34.5345ZM72.8515 21.6254C85.0683 13.7554 97.8087 7.25791 111.333 1.44205L110.543 -0.395271C96.9401 5.45436 84.0975 12.0017 71.7684 19.944L72.8515 21.6254ZM110.42 -0.331658C98.1431 7.11352 85.8243 14.8152 74.7853 23.4486L76.0175 25.024C86.9545 16.4703 99.1835 8.82161 111.457 1.37844L110.42 -0.331658ZM74.8046 23.4339C69.1308 27.6539 63.9851 32.3312 59.1116 37.2258L60.5288 38.637C65.3564 33.7885 70.4267 29.1826 75.9982 25.0387L74.8046 23.4339ZM59.0928 37.2452C54.4822 42.133 50.0385 47.5748 47.6816 53.3064L49.5313 54.067C51.7418 48.6915 55.9698 43.4706 60.5476 38.6176L59.0928 37.2452ZM47.697 53.2708C46.3626 56.1887 45.8349 59.1073 45.8463 61.7832L47.8463 61.7746C47.836 59.3688 48.3101 56.7393 49.5158 54.1026L47.697 53.2708ZM45.8518 61.8835C46.1434 64.6549 47.2852 66.9634 49.2834 68.7482L50.6157 67.2566C49.0107 65.8229 48.0837 63.9824 47.8408 61.6742L45.8518 61.8835ZM49.2834 68.7482C51.2707 70.5233 54.0376 71.6068 57.0084 72.105C59.9897 72.6049 63.2529 72.5292 66.311 71.9167L65.9182 69.9556C63.0845 70.5232 60.0668 70.5899 57.3392 70.1325C54.6013 69.6734 52.2316 68.6999 50.6157 67.2566L49.2834 68.7482ZM66.3033 71.9182C72.6113 70.7063 78.6696 67.835 83.1622 63.7526L81.8171 62.2724C77.6262 66.0807 71.9146 68.8036 65.9259 69.9541L66.3033 71.9182ZM83.1622 63.7526C85.5228 61.6074 87.4543 59.2583 88.698 56.9022C89.9375 54.5542 90.5347 52.1177 90.0809 49.8523L88.1198 50.2452C88.452 51.9033 88.0424 53.8599 86.9293 55.9685C85.8205 58.0691 84.0536 60.2401 81.8171 62.2724L83.1622 63.7526ZM90.0923 49.9221C89.501 45.2904 85.5486 41.1548 80.2653 38.5649L79.3849 40.3607C84.3787 42.8087 87.6387 46.4959 88.1084 50.1754L90.0923 49.9221ZM80.2969 38.5811C74.9687 35.7302 68.3825 34.5885 62.15 34.3812L62.0836 36.3801C68.1595 36.5822 74.4025 37.6956 79.3533 40.3445L80.2969 38.5811ZM62.1305 34.3808C49.0702 34.2013 35.7974 38.9595 25.6647 46.7527L26.884 48.3381C36.684 40.8007 49.523 36.2077 62.1031 36.3806L62.1305 34.3808ZM25.6434 46.7696C20.7219 50.7716 16.2904 55.4998 13.1596 60.9598L14.8946 61.9546C17.8716 56.763 22.1177 52.2144 26.9052 48.3213L25.6434 46.7696ZM13.1507 60.9757C11.6044 63.7902 10.2946 66.6444 9.50855 69.5248L11.438 70.0513C12.1666 67.3814 13.3969 64.6811 14.9035 61.9387L13.1507 60.9757ZM9.52556 69.4689C8.47997 72.5738 7.96847 75.6632 7.72036 78.7234L9.71382 78.885C9.9528 75.9374 10.4412 73.0167 11.421 70.1072L9.52556 69.4689ZM7.71782 78.7658C7.48169 84.9136 8.55772 91.3154 11.4868 97.2485L13.2802 96.3631C10.5194 90.771 9.49106 84.7082 9.71635 78.8426L7.71782 78.7658ZM11.5112 97.2948C14.7017 102.986 19.7181 108.164 26.0125 112.143L27.0812 110.452C21.0355 106.631 16.2659 101.687 13.2558 96.3168L11.5112 97.2948Z" fill="#006241" mask="url(#path-1-inside-1_9_59)"/>
</svg>
